o cylinder
v 0.400000 0.000000 0.000000
v 0.400000 2.000000 0.000000
v 0.399518 0.000000 0.019627
v 0.399518 2.000000 0.019627
v 0.398074 0.000000 0.039207
v 0.398074 2.000000 0.039207
v 0.395671 0.000000 0.058692
v 0.395671 2.000000 0.058692
v 0.392314 0.000000 0.078036
v 0.392314 2.000000 0.078036
v 0.388013 0.000000 0.097192
v 0.388013 2.000000 0.097192
v 0.382776 0.000000 0.116114
v 0.382776 2.000000 0.116114
v 0.376618 0.000000 0.134756
v 0.376618 2.000000 0.134756
v 0.369552 0.000000 0.153073
v 0.369552 2.000000 0.153073
v 0.361596 0.000000 0.171022
v 0.361596 2.000000 0.171022
v 0.352769 0.000000 0.188559
v 0.352769 2.000000 0.188559
v 0.343091 0.000000 0.205641
v 0.343091 2.000000 0.205641
v 0.332588 0.000000 0.222228
v 0.332588 2.000000 0.222228
v 0.321283 0.000000 0.238280
v 0.321283 2.000000 0.238280
v 0.309204 0.000000 0.253757
v 0.309204 2.000000 0.253757
v 0.296380 0.000000 0.268624
v 0.296380 2.000000 0.268624
v 0.282843 0.000000 0.282843
v 0.282843 2.000000 0.282843
v 0.268624 0.000000 0.296380
v 0.268624 2.000000 0.296380
v 0.253757 0.000000 0.309204
v 0.253757 2.000000 0.309204
v 0.238280 0.000000 0.321283
v 0.238280 2.000000 0.321283
v 0.222228 0.000000 0.332588
v 0.222228 2.000000 0.332588
v 0.205641 0.000000 0.343091
v 0.205641 2.000000 0.343091
v 0.188559 0.000000 0.352769
v 0.188559 2.000000 0.352769
v 0.171022 0.000000 0.361596
v 0.171022 2.000000 0.361596
v 0.153073 0.000000 0.369552
v 0.153073 2.000000 0.369552
v 0.134756 0.000000 0.376618
v 0.134756 2.000000 0.376618
v 0.116114 0.000000 0.382776
v 0.116114 2.000000 0.382776
v 0.097192 0.000000 0.388013
v 0.097192 2.000000 0.388013
v 0.078036 0.000000 0.392314
v 0.078036 2.000000 0.392314
v 0.058692 0.000000 0.395671
v 0.058692 2.000000 0.395671
v 0.039207 0.000000 0.398074
v 0.039207 2.000000 0.398074
v 0.019627 0.000000 0.399518
v 0.019627 2.000000 0.399518
v 0.000000 0.000000 0.400000
v 0.000000 2.000000 0.400000
v -0.019627 0.000000 0.399518
v -0.019627 2.000000 0.399518
v -0.039207 0.000000 0.398074
v -0.039207 2.000000 0.398074
v -0.058692 0.000000 0.395671
v -0.058692 2.000000 0.395671
v -0.078036 0.000000 0.392314
v -0.078036 2.000000 0.392314
v -0.097192 0.000000 0.388013
v -0.097192 2.000000 0.388013
v -0.116114 0.000000 0.382776
v -0.116114 2.000000 0.382776
v -0.134756 0.000000 0.376618
v -0.134756 2.000000 0.376618
v -0.153073 0.000000 0.369552
v -0.153073 2.000000 0.369552
v -0.171022 0.000000 0.361596
v -0.171022 2.000000 0.361596
v -0.188559 0.000000 0.352769
v -0.188559 2.000000 0.352769
v -0.205641 0.000000 0.343091
v -0.205641 2.000000 0.343091
v -0.222228 0.000000 0.332588
v -0.222228 2.000000 0.332588
v -0.238280 0.000000 0.321283
v -0.238280 2.000000 0.321283
v -0.253757 0.000000 0.309204
v -0.253757 2.000000 0.309204
v -0.268624 0.000000 0.296380
v -0.268624 2.000000 0.296380
v -0.282843 0.000000 0.282843
v -0.282843 2.000000 0.282843
v -0.296380 0.000000 0.268624
v -0.296380 2.000000 0.268624
v -0.309204 0.000000 0.253757
v -0.309204 2.000000 0.253757
v -0.321283 0.000000 0.238280
v -0.321283 2.000000 0.238280
v -0.332588 0.000000 0.222228
v -0.332588 2.000000 0.222228
v -0.343091 0.000000 0.205641
v -0.343091 2.000000 0.205641
v -0.352769 0.000000 0.188559
v -0.352769 2.000000 0.188559
v -0.361596 0.000000 0.171022
v -0.361596 2.000000 0.171022
v -0.369552 0.000000 0.153073
v -0.369552 2.000000 0.153073
v -0.376618 0.000000 0.134756
v -0.376618 2.000000 0.134756
v -0.382776 0.000000 0.116114
v -0.382776 2.000000 0.116114
v -0.388013 0.000000 0.097192
v -0.388013 2.000000 0.097192
v -0.392314 0.000000 0.078036
v -0.392314 2.000000 0.078036
v -0.395671 0.000000 0.058692
v -0.395671 2.000000 0.058692
v -0.398074 0.000000 0.039207
v -0.398074 2.000000 0.039207
v -0.399518 0.000000 0.019627
v -0.399518 2.000000 0.019627
v -0.400000 0.000000 0.000000
v -0.400000 2.000000 0.000000
v -0.399518 0.000000 -0.019627
v -0.399518 2.000000 -0.019627
v -0.398074 0.000000 -0.039207
v -0.398074 2.000000 -0.039207
v -0.395671 0.000000 -0.058692
v -0.395671 2.000000 -0.058692
v -0.392314 0.000000 -0.078036
v -0.392314 2.000000 -0.078036
v -0.388013 0.000000 -0.097192
v -0.388013 2.000000 -0.097192
v -0.382776 0.000000 -0.116114
v -0.382776 2.000000 -0.116114
v -0.376618 0.000000 -0.134756
v -0.376618 2.000000 -0.134756
v -0.369552 0.000000 -0.153073
v -0.369552 2.000000 -0.153073
v -0.361596 0.000000 -0.171022
v -0.361596 2.000000 -0.171022
v -0.352769 0.000000 -0.188559
v -0.352769 2.000000 -0.188559
v -0.343091 0.000000 -0.205641
v -0.343091 2.000000 -0.205641
v -0.332588 0.000000 -0.222228
v -0.332588 2.000000 -0.222228
v -0.321283 0.000000 -0.238280
v -0.321283 2.000000 -0.238280
v -0.309204 0.000000 -0.253757
v -0.309204 2.000000 -0.253757
v -0.296380 0.000000 -0.268624
v -0.296380 2.000000 -0.268624
v -0.282843 0.000000 -0.282843
v -0.282843 2.000000 -0.282843
v -0.268624 0.000000 -0.296380
v -0.268624 2.000000 -0.296380
v -0.253757 0.000000 -0.309204
v -0.253757 2.000000 -0.309204
v -0.238280 0.000000 -0.321283
v -0.238280 2.000000 -0.321283
v -0.222228 0.000000 -0.332588
v -0.222228 2.000000 -0.332588
v -0.205641 0.000000 -0.343091
v -0.205641 2.000000 -0.343091
v -0.188559 0.000000 -0.352769
v -0.188559 2.000000 -0.352769
v -0.171022 0.000000 -0.361596
v -0.171022 2.000000 -0.361596
v -0.153073 0.000000 -0.369552
v -0.153073 2.000000 -0.369552
v -0.134756 0.000000 -0.376618
v -0.134756 2.000000 -0.376618
v -0.116114 0.000000 -0.382776
v -0.116114 2.000000 -0.382776
v -0.097192 0.000000 -0.388013
v -0.097192 2.000000 -0.388013
v -0.078036 0.000000 -0.392314
v -0.078036 2.000000 -0.392314
v -0.058692 0.000000 -0.395671
v -0.058692 2.000000 -0.395671
v -0.039207 0.000000 -0.398074
v -0.039207 2.000000 -0.398074
v -0.019627 0.000000 -0.399518
v -0.019627 2.000000 -0.399518
v -0.000000 0.000000 -0.400000
v -0.000000 2.000000 -0.400000
v 0.019627 0.000000 -0.399518
v 0.019627 2.000000 -0.399518
v 0.039207 0.000000 -0.398074
v 0.039207 2.000000 -0.398074
v 0.058692 0.000000 -0.395671
v 0.058692 2.000000 -0.395671
v 0.078036 0.000000 -0.392314
v 0.078036 2.000000 -0.392314
v 0.097192 0.000000 -0.388013
v 0.097192 2.000000 -0.388013
v 0.116114 0.000000 -0.382776
v 0.116114 2.000000 -0.382776
v 0.134756 0.000000 -0.376618
v 0.134756 2.000000 -0.376618
v 0.153073 0.000000 -0.369552
v 0.153073 2.000000 -0.369552
v 0.171022 0.000000 -0.361596
v 0.171022 2.000000 -0.361596
v 0.188559 0.000000 -0.352769
v 0.188559 2.000000 -0.352769
v 0.205641 0.000000 -0.343091
v 0.205641 2.000000 -0.343091
v 0.222228 0.000000 -0.332588
v 0.222228 2.000000 -0.332588
v 0.238280 0.000000 -0.321283
v 0.238280 2.000000 -0.321283
v 0.253757 0.000000 -0.309204
v 0.253757 2.000000 -0.309204
v 0.268624 0.000000 -0.296380
v 0.268624 2.000000 -0.296380
v 0.282843 0.000000 -0.282843
v 0.282843 2.000000 -0.282843
v 0.296380 0.000000 -0.268624
v 0.296380 2.000000 -0.268624
v 0.309204 0.000000 -0.253757
v 0.309204 2.000000 -0.253757
v 0.321283 0.000000 -0.238280
v 0.321283 2.000000 -0.238280
v 0.332588 0.000000 -0.222228
v 0.332588 2.000000 -0.222228
v 0.343091 0.000000 -0.205641
v 0.343091 2.000000 -0.205641
v 0.352769 0.000000 -0.188559
v 0.352769 2.000000 -0.188559
v 0.361596 0.000000 -0.171022
v 0.361596 2.000000 -0.171022
v 0.369552 0.000000 -0.153073
v 0.369552 2.000000 -0.153073
v 0.376618 0.000000 -0.134756
v 0.376618 2.000000 -0.134756
v 0.382776 0.000000 -0.116114
v 0.382776 2.000000 -0.116114
v 0.388013 0.000000 -0.097192
v 0.388013 2.000000 -0.097192
v 0.392314 0.000000 -0.078036
v 0.392314 2.000000 -0.078036
v 0.395671 0.000000 -0.058692
v 0.395671 2.000000 -0.058692
v 0.398074 0.000000 -0.039207
v 0.398074 2.000000 -0.039207
v 0.399518 0.000000 -0.019627
v 0.399518 2.000000 -0.019627
v 0.400000 0.000000 -0.000000
v 0.400000 2.000000 -0.000000
vt 0.000000 0.000000
vt 0.000000 1.000000
vt 0.007812 0.000000
vt 0.007812 1.000000
vt 0.015625 0.000000
vt 0.015625 1.000000
vt 0.023438 0.000000
vt 0.023438 1.000000
vt 0.031250 0.000000
vt 0.031250 1.000000
vt 0.039062 0.000000
vt 0.039062 1.000000
vt 0.046875 0.000000
vt 0.046875 1.000000
vt 0.054688 0.000000
vt 0.054688 1.000000
vt 0.062500 0.000000
vt 0.062500 1.000000
vt 0.070312 0.000000
vt 0.070312 1.000000
vt 0.078125 0.000000
vt 0.078125 1.000000
vt 0.085938 0.000000
vt 0.085938 1.000000
vt 0.093750 0.000000
vt 0.093750 1.000000
vt 0.101562 0.000000
vt 0.101562 1.000000
vt 0.109375 0.000000
vt 0.109375 1.000000
vt 0.117188 0.000000
vt 0.117188 1.000000
vt 0.125000 0.000000
vt 0.125000 1.000000
vt 0.132812 0.000000
vt 0.132812 1.000000
vt 0.140625 0.000000
vt 0.140625 1.000000
vt 0.148438 0.000000
vt 0.148438 1.000000
vt 0.156250 0.000000
vt 0.156250 1.000000
vt 0.164062 0.000000
vt 0.164062 1.000000
vt 0.171875 0.000000
vt 0.171875 1.000000
vt 0.179688 0.000000
vt 0.179688 1.000000
vt 0.187500 0.000000
vt 0.187500 1.000000
vt 0.195312 0.000000
vt 0.195312 1.000000
vt 0.203125 0.000000
vt 0.203125 1.000000
vt 0.210938 0.000000
vt 0.210938 1.000000
vt 0.218750 0.000000
vt 0.218750 1.000000
vt 0.226562 0.000000
vt 0.226562 1.000000
vt 0.234375 0.000000
vt 0.234375 1.000000
vt 0.242188 0.000000
vt 0.242188 1.000000
vt 0.250000 0.000000
vt 0.250000 1.000000
vt 0.257812 0.000000
vt 0.257812 1.000000
vt 0.265625 0.000000
vt 0.265625 1.000000
vt 0.273438 0.000000
vt 0.273438 1.000000
vt 0.281250 0.000000
vt 0.281250 1.000000
vt 0.289062 0.000000
vt 0.289062 1.000000
vt 0.296875 0.000000
vt 0.296875 1.000000
vt 0.304688 0.000000
vt 0.304688 1.000000
vt 0.312500 0.000000
vt 0.312500 1.000000
vt 0.320312 0.000000
vt 0.320312 1.000000
vt 0.328125 0.000000
vt 0.328125 1.000000
vt 0.335938 0.000000
vt 0.335938 1.000000
vt 0.343750 0.000000
vt 0.343750 1.000000
vt 0.351562 0.000000
vt 0.351562 1.000000
vt 0.359375 0.000000
vt 0.359375 1.000000
vt 0.367188 0.000000
vt 0.367188 1.000000
vt 0.375000 0.000000
vt 0.375000 1.000000
vt 0.382812 0.000000
vt 0.382812 1.000000
vt 0.390625 0.000000
vt 0.390625 1.000000
vt 0.398438 0.000000
vt 0.398438 1.000000
vt 0.406250 0.000000
vt 0.406250 1.000000
vt 0.414062 0.000000
vt 0.414062 1.000000
vt 0.421875 0.000000
vt 0.421875 1.000000
vt 0.429688 0.000000
vt 0.429688 1.000000
vt 0.437500 0.000000
vt 0.437500 1.000000
vt 0.445312 0.000000
vt 0.445312 1.000000
vt 0.453125 0.000000
vt 0.453125 1.000000
vt 0.460938 0.000000
vt 0.460938 1.000000
vt 0.468750 0.000000
vt 0.468750 1.000000
vt 0.476562 0.000000
vt 0.476562 1.000000
vt 0.484375 0.000000
vt 0.484375 1.000000
vt 0.492188 0.000000
vt 0.492188 1.000000
vt 0.500000 0.000000
vt 0.500000 1.000000
vt 0.507812 0.000000
vt 0.507812 1.000000
vt 0.515625 0.000000
vt 0.515625 1.000000
vt 0.523438 0.000000
vt 0.523438 1.000000
vt 0.531250 0.000000
vt 0.531250 1.000000
vt 0.539062 0.000000
vt 0.539062 1.000000
vt 0.546875 0.000000
vt 0.546875 1.000000
vt 0.554688 0.000000
vt 0.554688 1.000000
vt 0.562500 0.000000
vt 0.562500 1.000000
vt 0.570312 0.000000
vt 0.570312 1.000000
vt 0.578125 0.000000
vt 0.578125 1.000000
vt 0.585938 0.000000
vt 0.585938 1.000000
vt 0.593750 0.000000
vt 0.593750 1.000000
vt 0.601562 0.000000
vt 0.601562 1.000000
vt 0.609375 0.000000
vt 0.609375 1.000000
vt 0.617188 0.000000
vt 0.617188 1.000000
vt 0.625000 0.000000
vt 0.625000 1.000000
vt 0.632812 0.000000
vt 0.632812 1.000000
vt 0.640625 0.000000
vt 0.640625 1.000000
vt 0.648438 0.000000
vt 0.648438 1.000000
vt 0.656250 0.000000
vt 0.656250 1.000000
vt 0.664062 0.000000
vt 0.664062 1.000000
vt 0.671875 0.000000
vt 0.671875 1.000000
vt 0.679688 0.000000
vt 0.679688 1.000000
vt 0.687500 0.000000
vt 0.687500 1.000000
vt 0.695312 0.000000
vt 0.695312 1.000000
vt 0.703125 0.000000
vt 0.703125 1.000000
vt 0.710938 0.000000
vt 0.710938 1.000000
vt 0.718750 0.000000
vt 0.718750 1.000000
vt 0.726562 0.000000
vt 0.726562 1.000000
vt 0.734375 0.000000
vt 0.734375 1.000000
vt 0.742188 0.000000
vt 0.742188 1.000000
vt 0.750000 0.000000
vt 0.750000 1.000000
vt 0.757812 0.000000
vt 0.757812 1.000000
vt 0.765625 0.000000
vt 0.765625 1.000000
vt 0.773438 0.000000
vt 0.773438 1.000000
vt 0.781250 0.000000
vt 0.781250 1.000000
vt 0.789062 0.000000
vt 0.789062 1.000000
vt 0.796875 0.000000
vt 0.796875 1.000000
vt 0.804688 0.000000
vt 0.804688 1.000000
vt 0.812500 0.000000
vt 0.812500 1.000000
vt 0.820312 0.000000
vt 0.820312 1.000000
vt 0.828125 0.000000
vt 0.828125 1.000000
vt 0.835938 0.000000
vt 0.835938 1.000000
vt 0.843750 0.000000
vt 0.843750 1.000000
vt 0.851562 0.000000
vt 0.851562 1.000000
vt 0.859375 0.000000
vt 0.859375 1.000000
vt 0.867188 0.000000
vt 0.867188 1.000000
vt 0.875000 0.000000
vt 0.875000 1.000000
vt 0.882812 0.000000
vt 0.882812 1.000000
vt 0.890625 0.000000
vt 0.890625 1.000000
vt 0.898438 0.000000
vt 0.898438 1.000000
vt 0.906250 0.000000
vt 0.906250 1.000000
vt 0.914062 0.000000
vt 0.914062 1.000000
vt 0.921875 0.000000
vt 0.921875 1.000000
vt 0.929688 0.000000
vt 0.929688 1.000000
vt 0.937500 0.000000
vt 0.937500 1.000000
vt 0.945312 0.000000
vt 0.945312 1.000000
vt 0.953125 0.000000
vt 0.953125 1.000000
vt 0.960938 0.000000
vt 0.960938 1.000000
vt 0.968750 0.000000
vt 0.968750 1.000000
vt 0.976562 0.000000
vt 0.976562 1.000000
vt 0.984375 0.000000
vt 0.984375 1.000000
vt 0.992188 0.000000
vt 0.992188 1.000000
vt 1.000000 0.000000
vt 1.000000 1.000000
vn 1.000000 0.000000 0.000000
vn 1.000000 0.000000 0.000000
vn 0.998795 0.000000 0.049068
vn 0.998795 0.000000 0.049068
vn 0.995185 0.000000 0.098017
vn 0.995185 0.000000 0.098017
vn 0.989177 0.000000 0.146730
vn 0.989177 0.000000 0.146730
vn 0.980785 0.000000 0.195090
vn 0.980785 0.000000 0.195090
vn 0.970031 0.000000 0.242980
vn 0.970031 0.000000 0.242980
vn 0.956940 0.000000 0.290285
vn 0.956940 0.000000 0.290285
vn 0.941544 0.000000 0.336890
vn 0.941544 0.000000 0.336890
vn 0.923880 0.000000 0.382683
vn 0.923880 0.000000 0.382683
vn 0.903989 0.000000 0.427555
vn 0.903989 0.000000 0.427555
vn 0.881921 0.000000 0.471397
vn 0.881921 0.000000 0.471397
vn 0.857729 0.000000 0.514103
vn 0.857729 0.000000 0.514103
vn 0.831470 0.000000 0.555570
vn 0.831470 0.000000 0.555570
vn 0.803208 0.000000 0.595699
vn 0.803208 0.000000 0.595699
vn 0.773010 0.000000 0.634393
vn 0.773010 0.000000 0.634393
vn 0.740951 0.000000 0.671559
vn 0.740951 0.000000 0.671559
vn 0.707107 0.000000 0.707107
vn 0.707107 0.000000 0.707107
vn 0.671559 0.000000 0.740951
vn 0.671559 0.000000 0.740951
vn 0.634393 0.000000 0.773010
vn 0.634393 0.000000 0.773010
vn 0.595699 0.000000 0.803208
vn 0.595699 0.000000 0.803208
vn 0.555570 0.000000 0.831470
vn 0.555570 0.000000 0.831470
vn 0.514103 0.000000 0.857729
vn 0.514103 0.000000 0.857729
vn 0.471397 0.000000 0.881921
vn 0.471397 0.000000 0.881921
vn 0.427555 0.000000 0.903989
vn 0.427555 0.000000 0.903989
vn 0.382683 0.000000 0.923880
vn 0.382683 0.000000 0.923880
vn 0.336890 0.000000 0.941544
vn 0.336890 0.000000 0.941544
vn 0.290285 0.000000 0.956940
vn 0.290285 0.000000 0.956940
vn 0.242980 0.000000 0.970031
vn 0.242980 0.000000 0.970031
vn 0.195090 0.000000 0.980785
vn 0.195090 0.000000 0.980785
vn 0.146730 0.000000 0.989177
vn 0.146730 0.000000 0.989177
vn 0.098017 0.000000 0.995185
vn 0.098017 0.000000 0.995185
vn 0.049068 0.000000 0.998795
vn 0.049068 0.000000 0.998795
vn 0.000000 0.000000 1.000000
vn 0.000000 0.000000 1.000000
vn -0.049068 0.000000 0.998795
vn -0.049068 0.000000 0.998795
vn -0.098017 0.000000 0.995185
vn -0.098017 0.000000 0.995185
vn -0.146730 0.000000 0.989177
vn -0.146730 0.000000 0.989177
vn -0.195090 0.000000 0.980785
vn -0.195090 0.000000 0.980785
vn -0.242980 0.000000 0.970031
vn -0.242980 0.000000 0.970031
vn -0.290285 0.000000 0.956940
vn -0.290285 0.000000 0.956940
vn -0.336890 0.000000 0.941544
vn -0.336890 0.000000 0.941544
vn -0.382683 0.000000 0.923880
vn -0.382683 0.000000 0.923880
vn -0.427555 0.000000 0.903989
vn -0.427555 0.000000 0.903989
vn -0.471397 0.000000 0.881921
vn -0.471397 0.000000 0.881921
vn -0.514103 0.000000 0.857729
vn -0.514103 0.000000 0.857729
vn -0.555570 0.000000 0.831470
vn -0.555570 0.000000 0.831470
vn -0.595699 0.000000 0.803208
vn -0.595699 0.000000 0.803208
vn -0.634393 0.000000 0.773010
vn -0.634393 0.000000 0.773010
vn -0.671559 0.000000 0.740951
vn -0.671559 0.000000 0.740951
vn -0.707107 0.000000 0.707107
vn -0.707107 0.000000 0.707107
vn -0.740951 0.000000 0.671559
vn -0.740951 0.000000 0.671559
vn -0.773010 0.000000 0.634393
vn -0.773010 0.000000 0.634393
vn -0.803208 0.000000 0.595699
vn -0.803208 0.000000 0.595699
vn -0.831470 0.000000 0.555570
vn -0.831470 0.000000 0.555570
vn -0.857729 0.000000 0.514103
vn -0.857729 0.000000 0.514103
vn -0.881921 0.000000 0.471397
vn -0.881921 0.000000 0.471397
vn -0.903989 0.000000 0.427555
vn -0.903989 0.000000 0.427555
vn -0.923880 0.000000 0.382683
vn -0.923880 0.000000 0.382683
vn -0.941544 0.000000 0.336890
vn -0.941544 0.000000 0.336890
vn -0.956940 0.000000 0.290285
vn -0.956940 0.000000 0.290285
vn -0.970031 0.000000 0.242980
vn -0.970031 0.000000 0.242980
vn -0.980785 0.000000 0.195090
vn -0.980785 0.000000 0.195090
vn -0.989177 0.000000 0.146730
vn -0.989177 0.000000 0.146730
vn -0.995185 0.000000 0.098017
vn -0.995185 0.000000 0.098017
vn -0.998795 0.000000 0.049068
vn -0.998795 0.000000 0.049068
vn -1.000000 0.000000 0.000000
vn -1.000000 0.000000 0.000000
vn -0.998795 0.000000 -0.049068
vn -0.998795 0.000000 -0.049068
vn -0.995185 0.000000 -0.098017
vn -0.995185 0.000000 -0.098017
vn -0.989177 0.000000 -0.146730
vn -0.989177 0.000000 -0.146730
vn -0.980785 0.000000 -0.195090
vn -0.980785 0.000000 -0.195090
vn -0.970031 0.000000 -0.242980
vn -0.970031 0.000000 -0.242980
vn -0.956940 0.000000 -0.290285
vn -0.956940 0.000000 -0.290285
vn -0.941544 0.000000 -0.336890
vn -0.941544 0.000000 -0.336890
vn -0.923880 0.000000 -0.382683
vn -0.923880 0.000000 -0.382683
vn -0.903989 0.000000 -0.427555
vn -0.903989 0.000000 -0.427555
vn -0.881921 0.000000 -0.471397
vn -0.881921 0.000000 -0.471397
vn -0.857729 0.000000 -0.514103
vn -0.857729 0.000000 -0.514103
vn -0.831470 0.000000 -0.555570
vn -0.831470 0.000000 -0.555570
vn -0.803208 0.000000 -0.595699
vn -0.803208 0.000000 -0.595699
vn -0.773010 0.000000 -0.634393
vn -0.773010 0.000000 -0.634393
vn -0.740951 0.000000 -0.671559
vn -0.740951 0.000000 -0.671559
vn -0.707107 0.000000 -0.707107
vn -0.707107 0.000000 -0.707107
vn -0.671559 0.000000 -0.740951
vn -0.671559 0.000000 -0.740951
vn -0.634393 0.000000 -0.773010
vn -0.634393 0.000000 -0.773010
vn -0.595699 0.000000 -0.803208
vn -0.595699 0.000000 -0.803208
vn -0.555570 0.000000 -0.831470
vn -0.555570 0.000000 -0.831470
vn -0.514103 0.000000 -0.857729
vn -0.514103 0.000000 -0.857729
vn -0.471397 0.000000 -0.881921
vn -0.471397 0.000000 -0.881921
vn -0.427555 0.000000 -0.903989
vn -0.427555 0.000000 -0.903989
vn -0.382683 0.000000 -0.923880
vn -0.382683 0.000000 -0.923880
vn -0.336890 0.000000 -0.941544
vn -0.336890 0.000000 -0.941544
vn -0.290285 0.000000 -0.956940
vn -0.290285 0.000000 -0.956940
vn -0.242980 0.000000 -0.970031
vn -0.242980 0.000000 -0.970031
vn -0.195090 0.000000 -0.980785
vn -0.195090 0.000000 -0.980785
vn -0.146730 0.000000 -0.989177
vn -0.146730 0.000000 -0.989177
vn -0.098017 0.000000 -0.995185
vn -0.098017 0.000000 -0.995185
vn -0.049068 0.000000 -0.998795
vn -0.049068 0.000000 -0.998795
vn -0.000000 0.000000 -1.000000
vn -0.000000 0.000000 -1.000000
vn 0.049068 0.000000 -0.998795
vn 0.049068 0.000000 -0.998795
vn 0.098017 0.000000 -0.995185
vn 0.098017 0.000000 -0.995185
vn 0.146730 0.000000 -0.989177
vn 0.146730 0.000000 -0.989177
vn 0.195090 0.000000 -0.980785
vn 0.195090 0.000000 -0.980785
vn 0.242980 0.000000 -0.970031
vn 0.242980 0.000000 -0.970031
vn 0.290285 0.000000 -0.956940
vn 0.290285 0.000000 -0.956940
vn 0.336890 0.000000 -0.941544
vn 0.336890 0.000000 -0.941544
vn 0.382683 0.000000 -0.923880
vn 0.382683 0.000000 -0.923880
vn 0.427555 0.000000 -0.903989
vn 0.427555 0.000000 -0.903989
vn 0.471397 0.000000 -0.881921
vn 0.471397 0.000000 -0.881921
vn 0.514103 0.000000 -0.857729
vn 0.514103 0.000000 -0.857729
vn 0.555570 0.000000 -0.831470
vn 0.555570 0.000000 -0.831470
vn 0.595699 0.000000 -0.803208
vn 0.595699 0.000000 -0.803208
vn 0.634393 0.000000 -0.773010
vn 0.634393 0.000000 -0.773010
vn 0.671559 0.000000 -0.740951
vn 0.671559 0.000000 -0.740951
vn 0.707107 0.000000 -0.707107
vn 0.707107 0.000000 -0.707107
vn 0.740951 0.000000 -0.671559
vn 0.740951 0.000000 -0.671559
vn 0.773010 0.000000 -0.634393
vn 0.773010 0.000000 -0.634393
vn 0.803208 0.000000 -0.595699
vn 0.803208 0.000000 -0.595699
vn 0.831470 0.000000 -0.555570
vn 0.831470 0.000000 -0.555570
vn 0.857729 0.000000 -0.514103
vn 0.857729 0.000000 -0.514103
vn 0.881921 0.000000 -0.471397
vn 0.881921 0.000000 -0.471397
vn 0.903989 0.000000 -0.427555
vn 0.903989 0.000000 -0.427555
vn 0.923880 0.000000 -0.382683
vn 0.923880 0.000000 -0.382683
vn 0.941544 0.000000 -0.336890
vn 0.941544 0.000000 -0.336890
vn 0.956940 0.000000 -0.290285
vn 0.956940 0.000000 -0.290285
vn 0.970031 0.000000 -0.242980
vn 0.970031 0.000000 -0.242980
vn 0.980785 0.000000 -0.195090
vn 0.980785 0.000000 -0.195090
vn 0.989177 0.000000 -0.146730
vn 0.989177 0.000000 -0.146730
vn 0.995185 0.000000 -0.098017
vn 0.995185 0.000000 -0.098017
vn 0.998795 0.000000 -0.049068
vn 0.998795 0.000000 -0.049068
vn 1.000000 0.000000 -0.000000
vn 1.000000 0.000000 -0.000000
f 1/1/1 2/2/2 4/4/4
f 1/1/1 4/4/4 3/3/3
f 3/3/3 4/4/4 6/6/6
f 3/3/3 6/6/6 5/5/5
f 5/5/5 6/6/6 8/8/8
f 5/5/5 8/8/8 7/7/7
f 7/7/7 8/8/8 10/10/10
f 7/7/7 10/10/10 9/9/9
f 9/9/9 10/10/10 12/12/12
f 9/9/9 12/12/12 11/11/11
f 11/11/11 12/12/12 14/14/14
f 11/11/11 14/14/14 13/13/13
f 13/13/13 14/14/14 16/16/16
f 13/13/13 16/16/16 15/15/15
f 15/15/15 16/16/16 18/18/18
f 15/15/15 18/18/18 17/17/17
f 17/17/17 18/18/18 20/20/20
f 17/17/17 20/20/20 19/19/19
f 19/19/19 20/20/20 22/22/22
f 19/19/19 22/22/22 21/21/21
f 21/21/21 22/22/22 24/24/24
f 21/21/21 24/24/24 23/23/23
f 23/23/23 24/24/24 26/26/26
f 23/23/23 26/26/26 25/25/25
f 25/25/25 26/26/26 28/28/28
f 25/25/25 28/28/28 27/27/27
f 27/27/27 28/28/28 30/30/30
f 27/27/27 30/30/30 29/29/29
f 29/29/29 30/30/30 32/32/32
f 29/29/29 32/32/32 31/31/31
f 31/31/31 32/32/32 34/34/34
f 31/31/31 34/34/34 33/33/33
f 33/33/33 34/34/34 36/36/36
f 33/33/33 36/36/36 35/35/35
f 35/35/35 36/36/36 38/38/38
f 35/35/35 38/38/38 37/37/37
f 37/37/37 38/38/38 40/40/40
f 37/37/37 40/40/40 39/39/39
f 39/39/39 40/40/40 42/42/42
f 39/39/39 42/42/42 41/41/41
f 41/41/41 42/42/42 44/44/44
f 41/41/41 44/44/44 43/43/43
f 43/43/43 44/44/44 46/46/46
f 43/43/43 46/46/46 45/45/45
f 45/45/45 46/46/46 48/48/48
f 45/45/45 48/48/48 47/47/47
f 47/47/47 48/48/48 50/50/50
f 47/47/47 50/50/50 49/49/49
f 49/49/49 50/50/50 52/52/52
f 49/49/49 52/52/52 51/51/51
f 51/51/51 52/52/52 54/54/54
f 51/51/51 54/54/54 53/53/53
f 53/53/53 54/54/54 56/56/56
f 53/53/53 56/56/56 55/55/55
f 55/55/55 56/56/56 58/58/58
f 55/55/55 58/58/58 57/57/57
f 57/57/57 58/58/58 60/60/60
f 57/57/57 60/60/60 59/59/59
f 59/59/59 60/60/60 62/62/62
f 59/59/59 62/62/62 61/61/61
f 61/61/61 62/62/62 64/64/64
f 61/61/61 64/64/64 63/63/63
f 63/63/63 64/64/64 66/66/66
f 63/63/63 66/66/66 65/65/65
f 65/65/65 66/66/66 68/68/68
f 65/65/65 68/68/68 67/67/67
f 67/67/67 68/68/68 70/70/70
f 67/67/67 70/70/70 69/69/69
f 69/69/69 70/70/70 72/72/72
f 69/69/69 72/72/72 71/71/71
f 71/71/71 72/72/72 74/74/74
f 71/71/71 74/74/74 73/73/73
f 73/73/73 74/74/74 76/76/76
f 73/73/73 76/76/76 75/75/75
f 75/75/75 76/76/76 78/78/78
f 75/75/75 78/78/78 77/77/77
f 77/77/77 78/78/78 80/80/80
f 77/77/77 80/80/80 79/79/79
f 79/79/79 80/80/80 82/82/82
f 79/79/79 82/82/82 81/81/81
f 81/81/81 82/82/82 84/84/84
f 81/81/81 84/84/84 83/83/83
f 83/83/83 84/84/84 86/86/86
f 83/83/83 86/86/86 85/85/85
f 85/85/85 86/86/86 88/88/88
f 85/85/85 88/88/88 87/87/87
f 87/87/87 88/88/88 90/90/90
f 87/87/87 90/90/90 89/89/89
f 89/89/89 90/90/90 92/92/92
f 89/89/89 92/92/92 91/91/91
f 91/91/91 92/92/92 94/94/94
f 91/91/91 94/94/94 93/93/93
f 93/93/93 94/94/94 96/96/96
f 93/93/93 96/96/96 95/95/95
f 95/95/95 96/96/96 98/98/98
f 95/95/95 98/98/98 97/97/97
f 97/97/97 98/98/98 100/100/100
f 97/97/97 100/100/100 99/99/99
f 99/99/99 100/100/100 102/102/102
f 99/99/99 102/102/102 101/101/101
f 101/101/101 102/102/102 104/104/104
f 101/101/101 104/104/104 103/103/103
f 103/103/103 104/104/104 106/106/106
f 103/103/103 106/106/106 105/105/105
f 105/105/105 106/106/106 108/108/108
f 105/105/105 108/108/108 107/107/107
f 107/107/107 108/108/108 110/110/110
f 107/107/107 110/110/110 109/109/109
f 109/109/109 110/110/110 112/112/112
f 109/109/109 112/112/112 111/111/111
f 111/111/111 112/112/112 114/114/114
f 111/111/111 114/114/114 113/113/113
f 113/113/113 114/114/114 116/116/116
f 113/113/113 116/116/116 115/115/115
f 115/115/115 116/116/116 118/118/118
f 115/115/115 118/118/118 117/117/117
f 117/117/117 118/118/118 120/120/120
f 117/117/117 120/120/120 119/119/119
f 119/119/119 120/120/120 122/122/122
f 119/119/119 122/122/122 121/121/121
f 121/121/121 122/122/122 124/124/124
f 121/121/121 124/124/124 123/123/123
f 123/123/123 124/124/124 126/126/126
f 123/123/123 126/126/126 125/125/125
f 125/125/125 126/126/126 128/128/128
f 125/125/125 128/128/128 127/127/127
f 127/127/127 128/128/128 130/130/130
f 127/127/127 130/130/130 129/129/129
f 129/129/129 130/130/130 132/132/132
f 129/129/129 132/132/132 131/131/131
f 131/131/131 132/132/132 134/134/134
f 131/131/131 134/134/134 133/133/133
f 133/133/133 134/134/134 136/136/136
f 133/133/133 136/136/136 135/135/135
f 135/135/135 136/136/136 138/138/138
f 135/135/135 138/138/138 137/137/137
f 137/137/137 138/138/138 140/140/140
f 137/137/137 140/140/140 139/139/139
f 139/139/139 140/140/140 142/142/142
f 139/139/139 142/142/142 141/141/141
f 141/141/141 142/142/142 144/144/144
f 141/141/141 144/144/144 143/143/143
f 143/143/143 144/144/144 146/146/146
f 143/143/143 146/146/146 145/145/145
f 145/145/145 146/146/146 148/148/148
f 145/145/145 148/148/148 147/147/147
f 147/147/147 148/148/148 150/150/150
f 147/147/147 150/150/150 149/149/149
f 149/149/149 150/150/150 152/152/152
f 149/149/149 152/152/152 151/151/151
f 151/151/151 152/152/152 154/154/154
f 151/151/151 154/154/154 153/153/153
f 153/153/153 154/154/154 156/156/156
f 153/153/153 156/156/156 155/155/155
f 155/155/155 156/156/156 158/158/158
f 155/155/155 158/158/158 157/157/157
f 157/157/157 158/158/158 160/160/160
f 157/157/157 160/160/160 159/159/159
f 159/159/159 160/160/160 162/162/162
f 159/159/159 162/162/162 161/161/161
f 161/161/161 162/162/162 164/164/164
f 161/161/161 164/164/164 163/163/163
f 163/163/163 164/164/164 166/166/166
f 163/163/163 166/166/166 165/165/165
f 165/165/165 166/166/166 168/168/168
f 165/165/165 168/168/168 167/167/167
f 167/167/167 168/168/168 170/170/170
f 167/167/167 170/170/170 169/169/169
f 169/169/169 170/170/170 172/172/172
f 169/169/169 172/172/172 171/171/171
f 171/171/171 172/172/172 174/174/174
f 171/171/171 174/174/174 173/173/173
f 173/173/173 174/174/174 176/176/176
f 173/173/173 176/176/176 175/175/175
f 175/175/175 176/176/176 178/178/178
f 175/175/175 178/178/178 177/177/177
f 177/177/177 178/178/178 180/180/180
f 177/177/177 180/180/180 179/179/179
f 179/179/179 180/180/180 182/182/182
f 179/179/179 182/182/182 181/181/181
f 181/181/181 182/182/182 184/184/184
f 181/181/181 184/184/184 183/183/183
f 183/183/183 184/184/184 186/186/186
f 183/183/183 186/186/186 185/185/185
f 185/185/185 186/186/186 188/188/188
f 185/185/185 188/188/188 187/187/187
f 187/187/187 188/188/188 190/190/190
f 187/187/187 190/190/190 189/189/189
f 189/189/189 190/190/190 192/192/192
f 189/189/189 192/192/192 191/191/191
f 191/191/191 192/192/192 194/194/194
f 191/191/191 194/194/194 193/193/193
f 193/193/193 194/194/194 196/196/196
f 193/193/193 196/196/196 195/195/195
f 195/195/195 196/196/196 198/198/198
f 195/195/195 198/198/198 197/197/197
f 197/197/197 198/198/198 200/200/200
f 197/197/197 200/200/200 199/199/199
f 199/199/199 200/200/200 202/202/202
f 199/199/199 202/202/202 201/201/201
f 201/201/201 202/202/202 204/204/204
f 201/201/201 204/204/204 203/203/203
f 203/203/203 204/204/204 206/206/206
f 203/203/203 206/206/206 205/205/205
f 205/205/205 206/206/206 208/208/208
f 205/205/205 208/208/208 207/207/207
f 207/207/207 208/208/208 210/210/210
f 207/207/207 210/210/210 209/209/209
f 209/209/209 210/210/210 212/212/212
f 209/209/209 212/212/212 211/211/211
f 211/211/211 212/212/212 214/214/214
f 211/211/211 214/214/214 213/213/213
f 213/213/213 214/214/214 216/216/216
f 213/213/213 216/216/216 215/215/215
f 215/215/215 216/216/216 218/218/218
f 215/215/215 218/218/218 217/217/217
f 217/217/217 218/218/218 220/220/220
f 217/217/217 220/220/220 219/219/219
f 219/219/219 220/220/220 222/222/222
f 219/219/219 222/222/222 221/221/221
f 221/221/221 222/222/222 224/224/224
f 221/221/221 224/224/224 223/223/223
f 223/223/223 224/224/224 226/226/226
f 223/223/223 226/226/226 225/225/225
f 225/225/225 226/226/226 228/228/228
f 225/225/225 228/228/228 227/227/227
f 227/227/227 228/228/228 230/230/230
f 227/227/227 230/230/230 229/229/229
f 229/229/229 230/230/230 232/232/232
f 229/229/229 232/232/232 231/231/231
f 231/231/231 232/232/232 234/234/234
f 231/231/231 234/234/234 233/233/233
f 233/233/233 234/234/234 236/236/236
f 233/233/233 236/236/236 235/235/235
f 235/235/235 236/236/236 238/238/238
f 235/235/235 238/238/238 237/237/237
f 237/237/237 238/238/238 240/240/240
f 237/237/237 240/240/240 239/239/239
f 239/239/239 240/240/240 242/242/242
f 239/239/239 242/242/242 241/241/241
f 241/241/241 242/242/242 244/244/244
f 241/241/241 244/244/244 243/243/243
f 243/243/243 244/244/244 246/246/246
f 243/243/243 246/246/246 245/245/245
f 245/245/245 246/246/246 248/248/248
f 245/245/245 248/248/248 247/247/247
f 247/247/247 248/248/248 250/250/250
f 247/247/247 250/250/250 249/249/249
f 249/249/249 250/250/250 252/252/252
f 249/249/249 252/252/252 251/251/251
f 251/251/251 252/252/252 254/254/254
f 251/251/251 254/254/254 253/253/253
f 253/253/253 254/254/254 256/256/256
f 253/253/253 256/256/256 255/255/255
f 255/255/255 256/256/256 258/258/258
f 255/255/255 258/258/258 257/257/257
