v 0.000000 0.000000 0.000000
v 0.000000 0.000000 1.000000
v 0.400000 0.000000 0.000000
v 0.460000 0.000000 1.000000
v 0.399518 0.019627 0.000000
v 0.459446 0.022571 1.000000
v 0.398074 0.039207 0.000000
v 0.457785 0.045088 1.000000
v 0.395671 0.058692 0.000000
v 0.455021 0.067496 1.000000
v 0.392314 0.078036 0.000000
v 0.451161 0.089742 1.000000
v 0.388013 0.097192 0.000000
v 0.446214 0.111771 1.000000
v 0.382776 0.116114 0.000000
v 0.440193 0.133531 1.000000
v 0.376618 0.134756 0.000000
v 0.433110 0.154969 1.000000
v 0.369552 0.153073 0.000000
v 0.424985 0.176034 1.000000
v 0.361596 0.171022 0.000000
v 0.415835 0.196675 1.000000
v 0.352769 0.188559 0.000000
v 0.405684 0.216842 1.000000
v 0.343091 0.205641 0.000000
v 0.394555 0.236487 1.000000
v 0.332588 0.222228 0.000000
v 0.382476 0.255562 1.000000
v 0.321283 0.238280 0.000000
v 0.369475 0.274022 1.000000
v 0.309204 0.253757 0.000000
v 0.355585 0.291821 1.000000
v 0.296380 0.268624 0.000000
v 0.340838 0.308917 1.000000
v 0.282843 0.282843 0.000000
v 0.325269 0.325269 1.000000
v 0.268624 0.296380 0.000000
v 0.308917 0.340838 1.000000
v 0.253757 0.309204 0.000000
v 0.291821 0.355585 1.000000
v 0.238280 0.321283 0.000000
v 0.274022 0.369475 1.000000
v 0.222228 0.332588 0.000000
v 0.255562 0.382476 1.000000
v 0.205641 0.343091 0.000000
v 0.236487 0.394555 1.000000
v 0.188559 0.352769 0.000000
v 0.216842 0.405684 1.000000
v 0.171022 0.361596 0.000000
v 0.196675 0.415835 1.000000
v 0.153073 0.369552 0.000000
v 0.176034 0.424985 1.000000
v 0.134756 0.376618 0.000000
v 0.154969 0.433110 1.000000
v 0.116114 0.382776 0.000000
v 0.133531 0.440193 1.000000
v 0.097192 0.388013 0.000000
v 0.111771 0.446214 1.000000
v 0.078036 0.392314 0.000000
v 0.089742 0.451161 1.000000
v 0.058692 0.395671 0.000000
v 0.067496 0.455021 1.000000
v 0.039207 0.398074 0.000000
v 0.045088 0.457785 1.000000
v 0.019627 0.399518 0.000000
v 0.022571 0.459446 1.000000
v 0.000000 0.400000 0.000000
v 0.000000 0.460000 1.000000
v -0.019627 0.399518 0.000000
v -0.022571 0.459446 1.000000
v -0.039207 0.398074 0.000000
v -0.045088 0.457785 1.000000
v -0.058692 0.395671 0.000000
v -0.067496 0.455021 1.000000
v -0.078036 0.392314 0.000000
v -0.089742 0.451161 1.000000
v -0.097192 0.388013 0.000000
v -0.111771 0.446214 1.000000
v -0.116114 0.382776 0.000000
v -0.133531 0.440193 1.000000
v -0.134756 0.376618 0.000000
v -0.154969 0.433110 1.000000
v -0.153073 0.369552 0.000000
v -0.176034 0.424985 1.000000
v -0.171022 0.361596 0.000000
v -0.196675 0.415835 1.000000
v -0.188559 0.352769 0.000000
v -0.216842 0.405684 1.000000
v -0.205641 0.343091 0.000000
v -0.236487 0.394555 1.000000
v -0.222228 0.332588 0.000000
v -0.255562 0.382476 1.000000
v -0.238280 0.321283 0.000000
v -0.274022 0.369475 1.000000
v -0.253757 0.309204 0.000000
v -0.291821 0.355585 1.000000
v -0.268624 0.296380 0.000000
v -0.308917 0.340838 1.000000
v -0.282843 0.282843 0.000000
v -0.325269 0.325269 1.000000
v -0.296380 0.268624 0.000000
v -0.340838 0.308917 1.000000
v -0.309204 0.253757 0.000000
v -0.355585 0.291821 1.000000
v -0.321283 0.238280 0.000000
v -0.369475 0.274022 1.000000
v -0.332588 0.222228 0.000000
v -0.382476 0.255562 1.000000
v -0.343091 0.205641 0.000000
v -0.394555 0.236487 1.000000
v -0.352769 0.188559 0.000000
v -0.405684 0.216842 1.000000
v -0.361596 0.171022 0.000000
v -0.415835 0.196675 1.000000
v -0.369552 0.153073 0.000000
v -0.424985 0.176034 1.000000
v -0.376618 0.134756 0.000000
v -0.433110 0.154969 1.000000
v -0.382776 0.116114 0.000000
v -0.440193 0.133531 1.000000
v -0.388013 0.097192 0.000000
v -0.446214 0.111771 1.000000
v -0.392314 0.078036 0.000000
v -0.451161 0.089742 1.000000
v -0.395671 0.058692 0.000000
v -0.455021 0.067496 1.000000
v -0.398074 0.039207 0.000000
v -0.457785 0.045088 1.000000
v -0.399518 0.019627 0.000000
v -0.459446 0.022571 1.000000
v -0.400000 0.000000 0.000000
v -0.460000 0.000000 1.000000
v -0.399518 -0.019627 0.000000
v -0.459446 -0.022571 1.000000
v -0.398074 -0.039207 0.000000
v -0.457785 -0.045088 1.000000
v -0.395671 -0.058692 0.000000
v -0.455021 -0.067496 1.000000
v -0.392314 -0.078036 0.000000
v -0.451161 -0.089742 1.000000
v -0.388013 -0.097192 0.000000
v -0.446214 -0.111771 1.000000
v -0.382776 -0.116114 0.000000
v -0.440193 -0.133531 1.000000
v -0.376618 -0.134756 0.000000
v -0.433110 -0.154969 1.000000
v -0.369552 -0.153073 0.000000
v -0.424985 -0.176034 1.000000
v -0.361596 -0.171022 0.000000
v -0.415835 -0.196675 1.000000
v -0.352769 -0.188559 0.000000
v -0.405684 -0.216842 1.000000
v -0.343091 -0.205641 0.000000
v -0.394555 -0.236487 1.000000
v -0.332588 -0.222228 0.000000
v -0.382476 -0.255562 1.000000
v -0.321283 -0.238280 0.000000
v -0.369475 -0.274022 1.000000
v -0.309204 -0.253757 0.000000
v -0.355585 -0.291821 1.000000
v -0.296380 -0.268624 0.000000
v -0.340838 -0.308917 1.000000
v -0.282843 -0.282843 0.000000
v -0.325269 -0.325269 1.000000
v -0.268624 -0.296380 0.000000
v -0.308917 -0.340838 1.000000
v -0.253757 -0.309204 0.000000
v -0.291821 -0.355585 1.000000
v -0.238280 -0.321283 0.000000
v -0.274022 -0.369475 1.000000
v -0.222228 -0.332588 0.000000
v -0.255562 -0.382476 1.000000
v -0.205641 -0.343091 0.000000
v -0.236487 -0.394555 1.000000
v -0.188559 -0.352769 0.000000
v -0.216842 -0.405684 1.000000
v -0.171022 -0.361596 0.000000
v -0.196675 -0.415835 1.000000
v -0.153073 -0.369552 0.000000
v -0.176034 -0.424985 1.000000
v -0.134756 -0.376618 0.000000
v -0.154969 -0.433110 1.000000
v -0.116114 -0.382776 0.000000
v -0.133531 -0.440193 1.000000
v -0.097192 -0.388013 0.000000
v -0.111771 -0.446214 1.000000
v -0.078036 -0.392314 0.000000
v -0.089742 -0.451161 1.000000
v -0.058692 -0.395671 0.000000
v -0.067496 -0.455021 1.000000
v -0.039207 -0.398074 0.000000
v -0.045088 -0.457785 1.000000
v -0.019627 -0.399518 0.000000
v -0.022571 -0.459446 1.000000
v -0.000000 -0.400000 0.000000
v -0.000000 -0.460000 1.000000
v 0.019627 -0.399518 0.000000
v 0.022571 -0.459446 1.000000
v 0.039207 -0.398074 0.000000
v 0.045088 -0.457785 1.000000
v 0.058692 -0.395671 0.000000
v 0.067496 -0.455021 1.000000
v 0.078036 -0.392314 0.000000
v 0.089742 -0.451161 1.000000
v 0.097192 -0.388013 0.000000
v 0.111771 -0.446214 1.000000
v 0.116114 -0.382776 0.000000
v 0.133531 -0.440193 1.000000
v 0.134756 -0.376618 0.000000
v 0.154969 -0.433110 1.000000
v 0.153073 -0.369552 0.000000
v 0.176034 -0.424985 1.000000
v 0.171022 -0.361596 0.000000
v 0.196675 -0.415835 1.000000
v 0.188559 -0.352769 0.000000
v 0.216842 -0.405684 1.000000
v 0.205641 -0.343091 0.000000
v 0.236487 -0.394555 1.000000
v 0.222228 -0.332588 0.000000
v 0.255562 -0.382476 1.000000
v 0.238280 -0.321283 0.000000
v 0.274022 -0.369475 1.000000
v 0.253757 -0.309204 0.000000
v 0.291821 -0.355585 1.000000
v 0.268624 -0.296380 0.000000
v 0.308917 -0.340838 1.000000
v 0.282843 -0.282843 0.000000
v 0.325269 -0.325269 1.000000
v 0.296380 -0.268624 0.000000
v 0.340838 -0.308917 1.000000
v 0.309204 -0.253757 0.000000
v 0.355585 -0.291821 1.000000
v 0.321283 -0.238280 0.000000
v 0.369475 -0.274022 1.000000
v 0.332588 -0.222228 0.000000
v 0.382476 -0.255562 1.000000
v 0.343091 -0.205641 0.000000
v 0.394555 -0.236487 1.000000
v 0.352769 -0.188559 0.000000
v 0.405684 -0.216842 1.000000
v 0.361596 -0.171022 0.000000
v 0.415835 -0.196675 1.000000
v 0.369552 -0.153073 0.000000
v 0.424985 -0.176034 1.000000
v 0.376618 -0.134756 0.000000
v 0.433110 -0.154969 1.000000
v 0.382776 -0.116114 0.000000
v 0.440193 -0.133531 1.000000
v 0.388013 -0.097192 0.000000
v 0.446214 -0.111771 1.000000
v 0.392314 -0.078036 0.000000
v 0.451161 -0.089742 1.000000
v 0.395671 -0.058692 0.000000
v 0.455021 -0.067496 1.000000
v 0.398074 -0.039207 0.000000
v 0.457785 -0.045088 1.000000
v 0.399518 -0.019627 0.000000
v 0.459446 -0.022571 1.000000
f 3 4 5
f 5 4 6
f 3 5 1
f 4 2 6
f 5 6 7
f 7 6 8
f 5 7 1
f 6 2 8
f 7 8 9
f 9 8 10
f 7 9 1
f 8 2 10
f 9 10 11
f 11 10 12
f 9 11 1
f 10 2 12
f 11 12 13
f 13 12 14
f 11 13 1
f 12 2 14
f 13 14 15
f 15 14 16
f 13 15 1
f 14 2 16
f 15 16 17
f 17 16 18
f 15 17 1
f 16 2 18
f 17 18 19
f 19 18 20
f 17 19 1
f 18 2 20
f 19 20 21
f 21 20 22
f 19 21 1
f 20 2 22
f 21 22 23
f 23 22 24
f 21 23 1
f 22 2 24
f 23 24 25
f 25 24 26
f 23 25 1
f 24 2 26
f 25 26 27
f 27 26 28
f 25 27 1
f 26 2 28
f 27 28 29
f 29 28 30
f 27 29 1
f 28 2 30
f 29 30 31
f 31 30 32
f 29 31 1
f 30 2 32
f 31 32 33
f 33 32 34
f 31 33 1
f 32 2 34
f 33 34 35
f 35 34 36
f 33 35 1
f 34 2 36
f 35 36 37
f 37 36 38
f 35 37 1
f 36 2 38
f 37 38 39
f 39 38 40
f 37 39 1
f 38 2 40
f 39 40 41
f 41 40 42
f 39 41 1
f 40 2 42
f 41 42 43
f 43 42 44
f 41 43 1
f 42 2 44
f 43 44 45
f 45 44 46
f 43 45 1
f 44 2 46
f 45 46 47
f 47 46 48
f 45 47 1
f 46 2 48
f 47 48 49
f 49 48 50
f 47 49 1
f 48 2 50
f 49 50 51
f 51 50 52
f 49 51 1
f 50 2 52
f 51 52 53
f 53 52 54
f 51 53 1
f 52 2 54
f 53 54 55
f 55 54 56
f 53 55 1
f 54 2 56
f 55 56 57
f 57 56 58
f 55 57 1
f 56 2 58
f 57 58 59
f 59 58 60
f 57 59 1
f 58 2 60
f 59 60 61
f 61 60 62
f 59 61 1
f 60 2 62
f 61 62 63
f 63 62 64
f 61 63 1
f 62 2 64
f 63 64 65
f 65 64 66
f 63 65 1
f 64 2 66
f 65 66 67
f 67 66 68
f 65 67 1
f 66 2 68
f 67 68 69
f 69 68 70
f 67 69 1
f 68 2 70
f 69 70 71
f 71 70 72
f 69 71 1
f 70 2 72
f 71 72 73
f 73 72 74
f 71 73 1
f 72 2 74
f 73 74 75
f 75 74 76
f 73 75 1
f 74 2 76
f 75 76 77
f 77 76 78
f 75 77 1
f 76 2 78
f 77 78 79
f 79 78 80
f 77 79 1
f 78 2 80
f 79 80 81
f 81 80 82
f 79 81 1
f 80 2 82
f 81 82 83
f 83 82 84
f 81 83 1
f 82 2 84
f 83 84 85
f 85 84 86
f 83 85 1
f 84 2 86
f 85 86 87
f 87 86 88
f 85 87 1
f 86 2 88
f 87 88 89
f 89 88 90
f 87 89 1
f 88 2 90
f 89 90 91
f 91 90 92
f 89 91 1
f 90 2 92
f 91 92 93
f 93 92 94
f 91 93 1
f 92 2 94
f 93 94 95
f 95 94 96
f 93 95 1
f 94 2 96
f 95 96 97
f 97 96 98
f 95 97 1
f 96 2 98
f 97 98 99
f 99 98 100
f 97 99 1
f 98 2 100
f 99 100 101
f 101 100 102
f 99 101 1
f 100 2 102
f 101 102 103
f 103 102 104
f 101 103 1
f 102 2 104
f 103 104 105
f 105 104 106
f 103 105 1
f 104 2 106
f 105 106 107
f 107 106 108
f 105 107 1
f 106 2 108
f 107 108 109
f 109 108 110
f 107 109 1
f 108 2 110
f 109 110 111
f 111 110 112
f 109 111 1
f 110 2 112
f 111 112 113
f 113 112 114
f 111 113 1
f 112 2 114
f 113 114 115
f 115 114 116
f 113 115 1
f 114 2 116
f 115 116 117
f 117 116 118
f 115 117 1
f 116 2 118
f 117 118 119
f 119 118 120
f 117 119 1
f 118 2 120
f 119 120 121
f 121 120 122
f 119 121 1
f 120 2 122
f 121 122 123
f 123 122 124
f 121 123 1
f 122 2 124
f 123 124 125
f 125 124 126
f 123 125 1
f 124 2 126
f 125 126 127
f 127 126 128
f 125 127 1
f 126 2 128
f 127 128 129
f 129 128 130
f 127 129 1
f 128 2 130
f 129 130 131
f 131 130 132
f 129 131 1
f 130 2 132
f 131 132 133
f 133 132 134
f 131 133 1
f 132 2 134
f 133 134 135
f 135 134 136
f 133 135 1
f 134 2 136
f 135 136 137
f 137 136 138
f 135 137 1
f 136 2 138
f 137 138 139
f 139 138 140
f 137 139 1
f 138 2 140
f 139 140 141
f 141 140 142
f 139 141 1
f 140 2 142
f 141 142 143
f 143 142 144
f 141 143 1
f 142 2 144
f 143 144 145
f 145 144 146
f 143 145 1
f 144 2 146
f 145 146 147
f 147 146 148
f 145 147 1
f 146 2 148
f 147 148 149
f 149 148 150
f 147 149 1
f 148 2 150
f 149 150 151
f 151 150 152
f 149 151 1
f 150 2 152
f 151 152 153
f 153 152 154
f 151 153 1
f 152 2 154
f 153 154 155
f 155 154 156
f 153 155 1
f 154 2 156
f 155 156 157
f 157 156 158
f 155 157 1
f 156 2 158
f 157 158 159
f 159 158 160
f 157 159 1
f 158 2 160
f 159 160 161
f 161 160 162
f 159 161 1
f 160 2 162
f 161 162 163
f 163 162 164
f 161 163 1
f 162 2 164
f 163 164 165
f 165 164 166
f 163 165 1
f 164 2 166
f 165 166 167
f 167 166 168
f 165 167 1
f 166 2 168
f 167 168 169
f 169 168 170
f 167 169 1
f 168 2 170
f 169 170 171
f 171 170 172
f 169 171 1
f 170 2 172
f 171 172 173
f 173 172 174
f 171 173 1
f 172 2 174
f 173 174 175
f 175 174 176
f 173 175 1
f 174 2 176
f 175 176 177
f 177 176 178
f 175 177 1
f 176 2 178
f 177 178 179
f 179 178 180
f 177 179 1
f 178 2 180
f 179 180 181
f 181 180 182
f 179 181 1
f 180 2 182
f 181 182 183
f 183 182 184
f 181 183 1
f 182 2 184
f 183 184 185
f 185 184 186
f 183 185 1
f 184 2 186
f 185 186 187
f 187 186 188
f 185 187 1
f 186 2 188
f 187 188 189
f 189 188 190
f 187 189 1
f 188 2 190
f 189 190 191
f 191 190 192
f 189 191 1
f 190 2 192
f 191 192 193
f 193 192 194
f 191 193 1
f 192 2 194
f 193 194 195
f 195 194 196
f 193 195 1
f 194 2 196
f 195 196 197
f 197 196 198
f 195 197 1
f 196 2 198
f 197 198 199
f 199 198 200
f 197 199 1
f 198 2 200
f 199 200 201
f 201 200 202
f 199 201 1
f 200 2 202
f 201 202 203
f 203 202 204
f 201 203 1
f 202 2 204
f 203 204 205
f 205 204 206
f 203 205 1
f 204 2 206
f 205 206 207
f 207 206 208
f 205 207 1
f 206 2 208
f 207 208 209
f 209 208 210
f 207 209 1
f 208 2 210
f 209 210 211
f 211 210 212
f 209 211 1
f 210 2 212
f 211 212 213
f 213 212 214
f 211 213 1
f 212 2 214
f 213 214 215
f 215 214 216
f 213 215 1
f 214 2 216
f 215 216 217
f 217 216 218
f 215 217 1
f 216 2 218
f 217 218 219
f 219 218 220
f 217 219 1
f 218 2 220
f 219 220 221
f 221 220 222
f 219 221 1
f 220 2 222
f 221 222 223
f 223 222 224
f 221 223 1
f 222 2 224
f 223 224 225
f 225 224 226
f 223 225 1
f 224 2 226
f 225 226 227
f 227 226 228
f 225 227 1
f 226 2 228
f 227 228 229
f 229 228 230
f 227 229 1
f 228 2 230
f 229 230 231
f 231 230 232
f 229 231 1
f 230 2 232
f 231 232 233
f 233 232 234
f 231 233 1
f 232 2 234
f 233 234 235
f 235 234 236
f 233 235 1
f 234 2 236
f 235 236 237
f 237 236 238
f 235 237 1
f 236 2 238
f 237 238 239
f 239 238 240
f 237 239 1
f 238 2 240
f 239 240 241
f 241 240 242
f 239 241 1
f 240 2 242
f 241 242 243
f 243 242 244
f 241 243 1
f 242 2 244
f 243 244 245
f 245 244 246
f 243 245 1
f 244 2 246
f 245 246 247
f 247 246 248
f 245 247 1
f 246 2 248
f 247 248 249
f 249 248 250
f 247 249 1
f 248 2 250
f 249 250 251
f 251 250 252
f 249 251 1
f 250 2 252
f 251 252 253
f 253 252 254
f 251 253 1
f 252 2 254
f 253 254 255
f 255 254 256
f 253 255 1
f 254 2 256
f 255 256 257
f 257 256 258
f 255 257 1
f 256 2 258
f 257 258 3
f 3 258 4
f 257 3 1
f 258 2 4
