mtllib saucer.mtl
o saucer
usemtl saucer_mat

v -0.500000 0.400000 1.500000
v -0.465517 0.373365 1.500000
v -0.431034 0.348633 1.500000
v -0.396552 0.325803 1.500000
v -0.362069 0.304875 1.500000
v -0.327586 0.285850 1.500000
v -0.293103 0.268728 1.500000
v -0.258621 0.253508 1.500000
v -0.224138 0.240190 1.500000
v -0.189655 0.228775 1.500000
v -0.155172 0.219263 1.500000
v -0.120690 0.211653 1.500000
v -0.086207 0.205945 1.500000
v -0.051724 0.202140 1.500000
v -0.017241 0.200238 1.500000
v 0.017241 0.200238 1.500000
v 0.051724 0.202140 1.500000
v 0.086207 0.205945 1.500000
v 0.120690 0.211653 1.500000
v 0.155172 0.219263 1.500000
v 0.189655 0.228775 1.500000
v 0.224138 0.240190 1.500000
v 0.258621 0.253508 1.500000
v 0.293103 0.268728 1.500000
v 0.327586 0.285850 1.500000
v 0.362069 0.304875 1.500000
v 0.396552 0.325803 1.500000
v 0.431034 0.348633 1.500000
v 0.465517 0.373365 1.500000
v 0.500000 0.400000 1.500000
v -0.500000 0.373365 1.465517
v -0.465517 0.346730 1.465517
v -0.431034 0.321998 1.465517
v -0.396552 0.299168 1.465517
v -0.362069 0.278240 1.465517
v -0.327586 0.259215 1.465517
v -0.293103 0.242093 1.465517
v -0.258621 0.226873 1.465517
v -0.224138 0.213555 1.465517
v -0.189655 0.202140 1.465517
v -0.155172 0.192628 1.465517
v -0.120690 0.185018 1.465517
v -0.086207 0.179310 1.465517
v -0.051724 0.175505 1.465517
v -0.017241 0.173603 1.465517
v 0.017241 0.173603 1.465517
v 0.051724 0.175505 1.465517
v 0.086207 0.179310 1.465517
v 0.120690 0.185018 1.465517
v 0.155172 0.192628 1.465517
v 0.189655 0.202140 1.465517
v 0.224138 0.213555 1.465517
v 0.258621 0.226873 1.465517
v 0.293103 0.242093 1.465517
v 0.327586 0.259215 1.465517
v 0.362069 0.278240 1.465517
v 0.396552 0.299168 1.465517
v 0.431034 0.321998 1.465517
v 0.465517 0.346730 1.465517
v 0.500000 0.373365 1.465517
v -0.500000 0.348633 1.431034
v -0.465517 0.321998 1.431034
v -0.431034 0.297265 1.431034
v -0.396552 0.274435 1.431034
v -0.362069 0.253508 1.431034
v -0.327586 0.234483 1.431034
v -0.293103 0.217360 1.431034
v -0.258621 0.202140 1.431034
v -0.224138 0.188823 1.431034
v -0.189655 0.177408 1.431034
v -0.155172 0.167895 1.431034
v -0.120690 0.160285 1.431034
v -0.086207 0.154578 1.431034
v -0.051724 0.150773 1.431034
v -0.017241 0.148870 1.431034
v 0.017241 0.148870 1.431034
v 0.051724 0.150773 1.431034
v 0.086207 0.154578 1.431034
v 0.120690 0.160285 1.431034
v 0.155172 0.167895 1.431034
v 0.189655 0.177408 1.431034
v 0.224138 0.188823 1.431034
v 0.258621 0.202140 1.431034
v 0.293103 0.217360 1.431034
v 0.327586 0.234483 1.431034
v 0.362069 0.253508 1.431034
v 0.396552 0.274435 1.431034
v 0.431034 0.297265 1.431034
v 0.465517 0.321998 1.431034
v 0.500000 0.348633 1.431034
v -0.500000 0.325803 1.396552
v -0.465517 0.299168 1.396552
v -0.431034 0.274435 1.396552
v -0.396552 0.251605 1.396552
v -0.362069 0.230678 1.396552
v -0.327586 0.211653 1.396552
v -0.293103 0.194530 1.396552
v -0.258621 0.179310 1.396552
v -0.224138 0.165993 1.396552
v -0.189655 0.154578 1.396552
v -0.155172 0.145065 1.396552
v -0.120690 0.137455 1.396552
v -0.086207 0.131748 1.396552
v -0.051724 0.127943 1.396552
v -0.017241 0.126040 1.396552
v 0.017241 0.126040 1.396552
v 0.051724 0.127943 1.396552
v 0.086207 0.131748 1.396552
v 0.120690 0.137455 1.396552
v 0.155172 0.145065 1.396552
v 0.189655 0.154578 1.396552
v 0.224138 0.165993 1.396552
v 0.258621 0.179310 1.396552
v 0.293103 0.194530 1.396552
v 0.327586 0.211653 1.396552
v 0.362069 0.230678 1.396552
v 0.396552 0.251605 1.396552
v 0.431034 0.274435 1.396552
v 0.465517 0.299168 1.396552
v 0.500000 0.325803 1.396552
v -0.500000 0.304875 1.362069
v -0.465517 0.278240 1.362069
v -0.431034 0.253508 1.362069
v -0.396552 0.230678 1.362069
v -0.362069 0.209750 1.362069
v -0.327586 0.190725 1.362069
v -0.293103 0.173603 1.362069
v -0.258621 0.158383 1.362069
v -0.224138 0.145065 1.362069
v -0.189655 0.133650 1.362069
v -0.155172 0.124138 1.362069
v -0.120690 0.116528 1.362069
v -0.086207 0.110820 1.362069
v -0.051724 0.107015 1.362069
v -0.017241 0.105113 1.362069
v 0.017241 0.105113 1.362069
v 0.051724 0.107015 1.362069
v 0.086207 0.110820 1.362069
v 0.120690 0.116528 1.362069
v 0.155172 0.124138 1.362069
v 0.189655 0.133650 1.362069
v 0.224138 0.145065 1.362069
v 0.258621 0.158383 1.362069
v 0.293103 0.173603 1.362069
v 0.327586 0.190725 1.362069
v 0.362069 0.209750 1.362069
v 0.396552 0.230678 1.362069
v 0.431034 0.253508 1.362069
v 0.465517 0.278240 1.362069
v 0.500000 0.304875 1.362069
v -0.500000 0.285850 1.327586
v -0.465517 0.259215 1.327586
v -0.431034 0.234483 1.327586
v -0.396552 0.211653 1.327586
v -0.362069 0.190725 1.327586
v -0.327586 0.171700 1.327586
v -0.293103 0.154578 1.327586
v -0.258621 0.139358 1.327586
v -0.224138 0.126040 1.327586
v -0.189655 0.114625 1.327586
v -0.155172 0.105113 1.327586
v -0.120690 0.097503 1.327586
v -0.086207 0.091795 1.327586
v -0.051724 0.087990 1.327586
v -0.017241 0.086088 1.327586
v 0.017241 0.086088 1.327586
v 0.051724 0.087990 1.327586
v 0.086207 0.091795 1.327586
v 0.120690 0.097503 1.327586
v 0.155172 0.105113 1.327586
v 0.189655 0.114625 1.327586
v 0.224138 0.126040 1.327586
v 0.258621 0.139358 1.327586
v 0.293103 0.154578 1.327586
v 0.327586 0.171700 1.327586
v 0.362069 0.190725 1.327586
v 0.396552 0.211653 1.327586
v 0.431034 0.234483 1.327586
v 0.465517 0.259215 1.327586
v 0.500000 0.285850 1.327586
v -0.500000 0.268728 1.293103
v -0.465517 0.242093 1.293103
v -0.431034 0.217360 1.293103
v -0.396552 0.194530 1.293103
v -0.362069 0.173603 1.293103
v -0.327586 0.154578 1.293103
v -0.293103 0.137455 1.293103
v -0.258621 0.122235 1.293103
v -0.224138 0.108918 1.293103
v -0.189655 0.097503 1.293103
v -0.155172 0.087990 1.293103
v -0.120690 0.080380 1.293103
v -0.086207 0.074673 1.293103
v -0.051724 0.070868 1.293103
v -0.017241 0.068966 1.293103
v 0.017241 0.068966 1.293103
v 0.051724 0.070868 1.293103
v 0.086207 0.074673 1.293103
v 0.120690 0.080380 1.293103
v 0.155172 0.087990 1.293103
v 0.189655 0.097503 1.293103
v 0.224138 0.108918 1.293103
v 0.258621 0.122235 1.293103
v 0.293103 0.137455 1.293103
v 0.327586 0.154578 1.293103
v 0.362069 0.173603 1.293103
v 0.396552 0.194530 1.293103
v 0.431034 0.217360 1.293103
v 0.465517 0.242093 1.293103
v 0.500000 0.268728 1.293103
v -0.500000 0.253508 1.258621
v -0.465517 0.226873 1.258621
v -0.431034 0.202140 1.258621
v -0.396552 0.179310 1.258621
v -0.362069 0.158383 1.258621
v -0.327586 0.139358 1.258621
v -0.293103 0.122235 1.258621
v -0.258621 0.107015 1.258621
v -0.224138 0.093698 1.258621
v -0.189655 0.082283 1.258621
v -0.155172 0.072771 1.258621
v -0.120690 0.065161 1.258621
v -0.086207 0.059453 1.258621
v -0.051724 0.055648 1.258621
v -0.017241 0.053746 1.258621
v 0.017241 0.053746 1.258621
v 0.051724 0.055648 1.258621
v 0.086207 0.059453 1.258621
v 0.120690 0.065161 1.258621
v 0.155172 0.072771 1.258621
v 0.189655 0.082283 1.258621
v 0.224138 0.093698 1.258621
v 0.258621 0.107015 1.258621
v 0.293103 0.122235 1.258621
v 0.327586 0.139358 1.258621
v 0.362069 0.158383 1.258621
v 0.396552 0.179310 1.258621
v 0.431034 0.202140 1.258621
v 0.465517 0.226873 1.258621
v 0.500000 0.253508 1.258621
v -0.500000 0.240190 1.224138
v -0.465517 0.213555 1.224138
v -0.431034 0.188823 1.224138
v -0.396552 0.165993 1.224138
v -0.362069 0.145065 1.224138
v -0.327586 0.126040 1.224138
v -0.293103 0.108918 1.224138
v -0.258621 0.093698 1.224138
v -0.224138 0.080380 1.224138
v -0.189655 0.068966 1.224138
v -0.155172 0.059453 1.224138
v -0.120690 0.051843 1.224138
v -0.086207 0.046136 1.224138
v -0.051724 0.042331 1.224138
v -0.017241 0.040428 1.224138
v 0.017241 0.040428 1.224138
v 0.051724 0.042331 1.224138
v 0.086207 0.046136 1.224138
v 0.120690 0.051843 1.224138
v 0.155172 0.059453 1.224138
v 0.189655 0.068966 1.224138
v 0.224138 0.080380 1.224138
v 0.258621 0.093698 1.224138
v 0.293103 0.108918 1.224138
v 0.327586 0.126040 1.224138
v 0.362069 0.145065 1.224138
v 0.396552 0.165993 1.224138
v 0.431034 0.188823 1.224138
v 0.465517 0.213555 1.224138
v 0.500000 0.240190 1.224138
v -0.500000 0.228775 1.189655
v -0.465517 0.202140 1.189655
v -0.431034 0.177408 1.189655
v -0.396552 0.154578 1.189655
v -0.362069 0.133650 1.189655
v -0.327586 0.114625 1.189655
v -0.293103 0.097503 1.189655
v -0.258621 0.082283 1.189655
v -0.224138 0.068966 1.189655
v -0.189655 0.057551 1.189655
v -0.155172 0.048038 1.189655
v -0.120690 0.040428 1.189655
v -0.086207 0.034721 1.189655
v -0.051724 0.030916 1.189655
v -0.017241 0.029013 1.189655
v 0.017241 0.029013 1.189655
v 0.051724 0.030916 1.189655
v 0.086207 0.034721 1.189655
v 0.120690 0.040428 1.189655
v 0.155172 0.048038 1.189655
v 0.189655 0.057551 1.189655
v 0.224138 0.068966 1.189655
v 0.258621 0.082283 1.189655
v 0.293103 0.097503 1.189655
v 0.327586 0.114625 1.189655
v 0.362069 0.133650 1.189655
v 0.396552 0.154578 1.189655
v 0.431034 0.177408 1.189655
v 0.465517 0.202140 1.189655
v 0.500000 0.228775 1.189655
v -0.500000 0.219263 1.155172
v -0.465517 0.192628 1.155172
v -0.431034 0.167895 1.155172
v -0.396552 0.145065 1.155172
v -0.362069 0.124138 1.155172
v -0.327586 0.105113 1.155172
v -0.293103 0.087990 1.155172
v -0.258621 0.072771 1.155172
v -0.224138 0.059453 1.155172
v -0.189655 0.048038 1.155172
v -0.155172 0.038526 1.155172
v -0.120690 0.030916 1.155172
v -0.086207 0.025208 1.155172
v -0.051724 0.021403 1.155172
v -0.017241 0.019501 1.155172
v 0.017241 0.019501 1.155172
v 0.051724 0.021403 1.155172
v 0.086207 0.025208 1.155172
v 0.120690 0.030916 1.155172
v 0.155172 0.038526 1.155172
v 0.189655 0.048038 1.155172
v 0.224138 0.059453 1.155172
v 0.258621 0.072771 1.155172
v 0.293103 0.087990 1.155172
v 0.327586 0.105113 1.155172
v 0.362069 0.124138 1.155172
v 0.396552 0.145065 1.155172
v 0.431034 0.167895 1.155172
v 0.465517 0.192628 1.155172
v 0.500000 0.219263 1.155172
v -0.500000 0.211653 1.120690
v -0.465517 0.185018 1.120690
v -0.431034 0.160285 1.120690
v -0.396552 0.137455 1.120690
v -0.362069 0.116528 1.120690
v -0.327586 0.097503 1.120690
v -0.293103 0.080380 1.120690
v -0.258621 0.065161 1.120690
v -0.224138 0.051843 1.120690
v -0.189655 0.040428 1.120690
v -0.155172 0.030916 1.120690
v -0.120690 0.023306 1.120690
v -0.086207 0.017598 1.120690
v -0.051724 0.013793 1.120690
v -0.017241 0.011891 1.120690
v 0.017241 0.011891 1.120690
v 0.051724 0.013793 1.120690
v 0.086207 0.017598 1.120690
v 0.120690 0.023306 1.120690
v 0.155172 0.030916 1.120690
v 0.189655 0.040428 1.120690
v 0.224138 0.051843 1.120690
v 0.258621 0.065161 1.120690
v 0.293103 0.080380 1.120690
v 0.327586 0.097503 1.120690
v 0.362069 0.116528 1.120690
v 0.396552 0.137455 1.120690
v 0.431034 0.160285 1.120690
v 0.465517 0.185018 1.120690
v 0.500000 0.211653 1.120690
v -0.500000 0.205945 1.086207
v -0.465517 0.179310 1.086207
v -0.431034 0.154578 1.086207
v -0.396552 0.131748 1.086207
v -0.362069 0.110820 1.086207
v -0.327586 0.091795 1.086207
v -0.293103 0.074673 1.086207
v -0.258621 0.059453 1.086207
v -0.224138 0.046136 1.086207
v -0.189655 0.034721 1.086207
v -0.155172 0.025208 1.086207
v -0.120690 0.017598 1.086207
v -0.086207 0.011891 1.086207
v -0.051724 0.008086 1.086207
v -0.017241 0.006183 1.086207
v 0.017241 0.006183 1.086207
v 0.051724 0.008086 1.086207
v 0.086207 0.011891 1.086207
v 0.120690 0.017598 1.086207
v 0.155172 0.025208 1.086207
v 0.189655 0.034721 1.086207
v 0.224138 0.046136 1.086207
v 0.258621 0.059453 1.086207
v 0.293103 0.074673 1.086207
v 0.327586 0.091795 1.086207
v 0.362069 0.110820 1.086207
v 0.396552 0.131748 1.086207
v 0.431034 0.154578 1.086207
v 0.465517 0.179310 1.086207
v 0.500000 0.205945 1.086207
v -0.500000 0.202140 1.051724
v -0.465517 0.175505 1.051724
v -0.431034 0.150773 1.051724
v -0.396552 0.127943 1.051724
v -0.362069 0.107015 1.051724
v -0.327586 0.087990 1.051724
v -0.293103 0.070868 1.051724
v -0.258621 0.055648 1.051724
v -0.224138 0.042331 1.051724
v -0.189655 0.030916 1.051724
v -0.155172 0.021403 1.051724
v -0.120690 0.013793 1.051724
v -0.086207 0.008086 1.051724
v -0.051724 0.004281 1.051724
v -0.017241 0.002378 1.051724
v 0.017241 0.002378 1.051724
v 0.051724 0.004281 1.051724
v 0.086207 0.008086 1.051724
v 0.120690 0.013793 1.051724
v 0.155172 0.021403 1.051724
v 0.189655 0.030916 1.051724
v 0.224138 0.042331 1.051724
v 0.258621 0.055648 1.051724
v 0.293103 0.070868 1.051724
v 0.327586 0.087990 1.051724
v 0.362069 0.107015 1.051724
v 0.396552 0.127943 1.051724
v 0.431034 0.150773 1.051724
v 0.465517 0.175505 1.051724
v 0.500000 0.202140 1.051724
v -0.500000 0.200238 1.017241
v -0.465517 0.173603 1.017241
v -0.431034 0.148870 1.017241
v -0.396552 0.126040 1.017241
v -0.362069 0.105113 1.017241
v -0.327586 0.086088 1.017241
v -0.293103 0.068966 1.017241
v -0.258621 0.053746 1.017241
v -0.224138 0.040428 1.017241
v -0.189655 0.029013 1.017241
v -0.155172 0.019501 1.017241
v -0.120690 0.011891 1.017241
v -0.086207 0.006183 1.017241
v -0.051724 0.002378 1.017241
v -0.017241 0.000476 1.017241
v 0.017241 0.000476 1.017241
v 0.051724 0.002378 1.017241
v 0.086207 0.006183 1.017241
v 0.120690 0.011891 1.017241
v 0.155172 0.019501 1.017241
v 0.189655 0.029013 1.017241
v 0.224138 0.040428 1.017241
v 0.258621 0.053746 1.017241
v 0.293103 0.068966 1.017241
v 0.327586 0.086088 1.017241
v 0.362069 0.105113 1.017241
v 0.396552 0.126040 1.017241
v 0.431034 0.148870 1.017241
v 0.465517 0.173603 1.017241
v 0.500000 0.200238 1.017241
v -0.500000 0.200238 0.982759
v -0.465517 0.173603 0.982759
v -0.431034 0.148870 0.982759
v -0.396552 0.126040 0.982759
v -0.362069 0.105113 0.982759
v -0.327586 0.086088 0.982759
v -0.293103 0.068966 0.982759
v -0.258621 0.053746 0.982759
v -0.224138 0.040428 0.982759
v -0.189655 0.029013 0.982759
v -0.155172 0.019501 0.982759
v -0.120690 0.011891 0.982759
v -0.086207 0.006183 0.982759
v -0.051724 0.002378 0.982759
v -0.017241 0.000476 0.982759
v 0.017241 0.000476 0.982759
v 0.051724 0.002378 0.982759
v 0.086207 0.006183 0.982759
v 0.120690 0.011891 0.982759
v 0.155172 0.019501 0.982759
v 0.189655 0.029013 0.982759
v 0.224138 0.040428 0.982759
v 0.258621 0.053746 0.982759
v 0.293103 0.068966 0.982759
v 0.327586 0.086088 0.982759
v 0.362069 0.105113 0.982759
v 0.396552 0.126040 0.982759
v 0.431034 0.148870 0.982759
v 0.465517 0.173603 0.982759
v 0.500000 0.200238 0.982759
v -0.500000 0.202140 0.948276
v -0.465517 0.175505 0.948276
v -0.431034 0.150773 0.948276
v -0.396552 0.127943 0.948276
v -0.362069 0.107015 0.948276
v -0.327586 0.087990 0.948276
v -0.293103 0.070868 0.948276
v -0.258621 0.055648 0.948276
v -0.224138 0.042331 0.948276
v -0.189655 0.030916 0.948276
v -0.155172 0.021403 0.948276
v -0.120690 0.013793 0.948276
v -0.086207 0.008086 0.948276
v -0.051724 0.004281 0.948276
v -0.017241 0.002378 0.948276
v 0.017241 0.002378 0.948276
v 0.051724 0.004281 0.948276
v 0.086207 0.008086 0.948276
v 0.120690 0.013793 0.948276
v 0.155172 0.021403 0.948276
v 0.189655 0.030916 0.948276
v 0.224138 0.042331 0.948276
v 0.258621 0.055648 0.948276
v 0.293103 0.070868 0.948276
v 0.327586 0.087990 0.948276
v 0.362069 0.107015 0.948276
v 0.396552 0.127943 0.948276
v 0.431034 0.150773 0.948276
v 0.465517 0.175505 0.948276
v 0.500000 0.202140 0.948276
v -0.500000 0.205945 0.913793
v -0.465517 0.179310 0.913793
v -0.431034 0.154578 0.913793
v -0.396552 0.131748 0.913793
v -0.362069 0.110820 0.913793
v -0.327586 0.091795 0.913793
v -0.293103 0.074673 0.913793
v -0.258621 0.059453 0.913793
v -0.224138 0.046136 0.913793
v -0.189655 0.034721 0.913793
v -0.155172 0.025208 0.913793
v -0.120690 0.017598 0.913793
v -0.086207 0.011891 0.913793
v -0.051724 0.008086 0.913793
v -0.017241 0.006183 0.913793
v 0.017241 0.006183 0.913793
v 0.051724 0.008086 0.913793
v 0.086207 0.011891 0.913793
v 0.120690 0.017598 0.913793
v 0.155172 0.025208 0.913793
v 0.189655 0.034721 0.913793
v 0.224138 0.046136 0.913793
v 0.258621 0.059453 0.913793
v 0.293103 0.074673 0.913793
v 0.327586 0.091795 0.913793
v 0.362069 0.110820 0.913793
v 0.396552 0.131748 0.913793
v 0.431034 0.154578 0.913793
v 0.465517 0.179310 0.913793
v 0.500000 0.205945 0.913793
v -0.500000 0.211653 0.879310
v -0.465517 0.185018 0.879310
v -0.431034 0.160285 0.879310
v -0.396552 0.137455 0.879310
v -0.362069 0.116528 0.879310
v -0.327586 0.097503 0.879310
v -0.293103 0.080380 0.879310
v -0.258621 0.065161 0.879310
v -0.224138 0.051843 0.879310
v -0.189655 0.040428 0.879310
v -0.155172 0.030916 0.879310
v -0.120690 0.023306 0.879310
v -0.086207 0.017598 0.879310
v -0.051724 0.013793 0.879310
v -0.017241 0.011891 0.879310
v 0.017241 0.011891 0.879310
v 0.051724 0.013793 0.879310
v 0.086207 0.017598 0.879310
v 0.120690 0.023306 0.879310
v 0.155172 0.030916 0.879310
v 0.189655 0.040428 0.879310
v 0.224138 0.051843 0.879310
v 0.258621 0.065161 0.879310
v 0.293103 0.080380 0.879310
v 0.327586 0.097503 0.879310
v 0.362069 0.116528 0.879310
v 0.396552 0.137455 0.879310
v 0.431034 0.160285 0.879310
v 0.465517 0.185018 0.879310
v 0.500000 0.211653 0.879310
v -0.500000 0.219263 0.844828
v -0.465517 0.192628 0.844828
v -0.431034 0.167895 0.844828
v -0.396552 0.145065 0.844828
v -0.362069 0.124138 0.844828
v -0.327586 0.105113 0.844828
v -0.293103 0.087990 0.844828
v -0.258621 0.072771 0.844828
v -0.224138 0.059453 0.844828
v -0.189655 0.048038 0.844828
v -0.155172 0.038526 0.844828
v -0.120690 0.030916 0.844828
v -0.086207 0.025208 0.844828
v -0.051724 0.021403 0.844828
v -0.017241 0.019501 0.844828
v 0.017241 0.019501 0.844828
v 0.051724 0.021403 0.844828
v 0.086207 0.025208 0.844828
v 0.120690 0.030916 0.844828
v 0.155172 0.038526 0.844828
v 0.189655 0.048038 0.844828
v 0.224138 0.059453 0.844828
v 0.258621 0.072771 0.844828
v 0.293103 0.087990 0.844828
v 0.327586 0.105113 0.844828
v 0.362069 0.124138 0.844828
v 0.396552 0.145065 0.844828
v 0.431034 0.167895 0.844828
v 0.465517 0.192628 0.844828
v 0.500000 0.219263 0.844828
v -0.500000 0.228775 0.810345
v -0.465517 0.202140 0.810345
v -0.431034 0.177408 0.810345
v -0.396552 0.154578 0.810345
v -0.362069 0.133650 0.810345
v -0.327586 0.114625 0.810345
v -0.293103 0.097503 0.810345
v -0.258621 0.082283 0.810345
v -0.224138 0.068966 0.810345
v -0.189655 0.057551 0.810345
v -0.155172 0.048038 0.810345
v -0.120690 0.040428 0.810345
v -0.086207 0.034721 0.810345
v -0.051724 0.030916 0.810345
v -0.017241 0.029013 0.810345
v 0.017241 0.029013 0.810345
v 0.051724 0.030916 0.810345
v 0.086207 0.034721 0.810345
v 0.120690 0.040428 0.810345
v 0.155172 0.048038 0.810345
v 0.189655 0.057551 0.810345
v 0.224138 0.068966 0.810345
v 0.258621 0.082283 0.810345
v 0.293103 0.097503 0.810345
v 0.327586 0.114625 0.810345
v 0.362069 0.133650 0.810345
v 0.396552 0.154578 0.810345
v 0.431034 0.177408 0.810345
v 0.465517 0.202140 0.810345
v 0.500000 0.228775 0.810345
v -0.500000 0.240190 0.775862
v -0.465517 0.213555 0.775862
v -0.431034 0.188823 0.775862
v -0.396552 0.165993 0.775862
v -0.362069 0.145065 0.775862
v -0.327586 0.126040 0.775862
v -0.293103 0.108918 0.775862
v -0.258621 0.093698 0.775862
v -0.224138 0.080380 0.775862
v -0.189655 0.068966 0.775862
v -0.155172 0.059453 0.775862
v -0.120690 0.051843 0.775862
v -0.086207 0.046136 0.775862
v -0.051724 0.042331 0.775862
v -0.017241 0.040428 0.775862
v 0.017241 0.040428 0.775862
v 0.051724 0.042331 0.775862
v 0.086207 0.046136 0.775862
v 0.120690 0.051843 0.775862
v 0.155172 0.059453 0.775862
v 0.189655 0.068966 0.775862
v 0.224138 0.080380 0.775862
v 0.258621 0.093698 0.775862
v 0.293103 0.108918 0.775862
v 0.327586 0.126040 0.775862
v 0.362069 0.145065 0.775862
v 0.396552 0.165993 0.775862
v 0.431034 0.188823 0.775862
v 0.465517 0.213555 0.775862
v 0.500000 0.240190 0.775862
v -0.500000 0.253508 0.741379
v -0.465517 0.226873 0.741379
v -0.431034 0.202140 0.741379
v -0.396552 0.179310 0.741379
v -0.362069 0.158383 0.741379
v -0.327586 0.139358 0.741379
v -0.293103 0.122235 0.741379
v -0.258621 0.107015 0.741379
v -0.224138 0.093698 0.741379
v -0.189655 0.082283 0.741379
v -0.155172 0.072771 0.741379
v -0.120690 0.065161 0.741379
v -0.086207 0.059453 0.741379
v -0.051724 0.055648 0.741379
v -0.017241 0.053746 0.741379
v 0.017241 0.053746 0.741379
v 0.051724 0.055648 0.741379
v 0.086207 0.059453 0.741379
v 0.120690 0.065161 0.741379
v 0.155172 0.072771 0.741379
v 0.189655 0.082283 0.741379
v 0.224138 0.093698 0.741379
v 0.258621 0.107015 0.741379
v 0.293103 0.122235 0.741379
v 0.327586 0.139358 0.741379
v 0.362069 0.158383 0.741379
v 0.396552 0.179310 0.741379
v 0.431034 0.202140 0.741379
v 0.465517 0.226873 0.741379
v 0.500000 0.253508 0.741379
v -0.500000 0.268728 0.706897
v -0.465517 0.242093 0.706897
v -0.431034 0.217360 0.706897
v -0.396552 0.194530 0.706897
v -0.362069 0.173603 0.706897
v -0.327586 0.154578 0.706897
v -0.293103 0.137455 0.706897
v -0.258621 0.122235 0.706897
v -0.224138 0.108918 0.706897
v -0.189655 0.097503 0.706897
v -0.155172 0.087990 0.706897
v -0.120690 0.080380 0.706897
v -0.086207 0.074673 0.706897
v -0.051724 0.070868 0.706897
v -0.017241 0.068966 0.706897
v 0.017241 0.068966 0.706897
v 0.051724 0.070868 0.706897
v 0.086207 0.074673 0.706897
v 0.120690 0.080380 0.706897
v 0.155172 0.087990 0.706897
v 0.189655 0.097503 0.706897
v 0.224138 0.108918 0.706897
v 0.258621 0.122235 0.706897
v 0.293103 0.137455 0.706897
v 0.327586 0.154578 0.706897
v 0.362069 0.173603 0.706897
v 0.396552 0.194530 0.706897
v 0.431034 0.217360 0.706897
v 0.465517 0.242093 0.706897
v 0.500000 0.268728 0.706897
v -0.500000 0.285850 0.672414
v -0.465517 0.259215 0.672414
v -0.431034 0.234483 0.672414
v -0.396552 0.211653 0.672414
v -0.362069 0.190725 0.672414
v -0.327586 0.171700 0.672414
v -0.293103 0.154578 0.672414
v -0.258621 0.139358 0.672414
v -0.224138 0.126040 0.672414
v -0.189655 0.114625 0.672414
v -0.155172 0.105113 0.672414
v -0.120690 0.097503 0.672414
v -0.086207 0.091795 0.672414
v -0.051724 0.087990 0.672414
v -0.017241 0.086088 0.672414
v 0.017241 0.086088 0.672414
v 0.051724 0.087990 0.672414
v 0.086207 0.091795 0.672414
v 0.120690 0.097503 0.672414
v 0.155172 0.105113 0.672414
v 0.189655 0.114625 0.672414
v 0.224138 0.126040 0.672414
v 0.258621 0.139358 0.672414
v 0.293103 0.154578 0.672414
v 0.327586 0.171700 0.672414
v 0.362069 0.190725 0.672414
v 0.396552 0.211653 0.672414
v 0.431034 0.234483 0.672414
v 0.465517 0.259215 0.672414
v 0.500000 0.285850 0.672414
v -0.500000 0.304875 0.637931
v -0.465517 0.278240 0.637931
v -0.431034 0.253508 0.637931
v -0.396552 0.230678 0.637931
v -0.362069 0.209750 0.637931
v -0.327586 0.190725 0.637931
v -0.293103 0.173603 0.637931
v -0.258621 0.158383 0.637931
v -0.224138 0.145065 0.637931
v -0.189655 0.133650 0.637931
v -0.155172 0.124138 0.637931
v -0.120690 0.116528 0.637931
v -0.086207 0.110820 0.637931
v -0.051724 0.107015 0.637931
v -0.017241 0.105113 0.637931
v 0.017241 0.105113 0.637931
v 0.051724 0.107015 0.637931
v 0.086207 0.110820 0.637931
v 0.120690 0.116528 0.637931
v 0.155172 0.124138 0.637931
v 0.189655 0.133650 0.637931
v 0.224138 0.145065 0.637931
v 0.258621 0.158383 0.637931
v 0.293103 0.173603 0.637931
v 0.327586 0.190725 0.637931
v 0.362069 0.209750 0.637931
v 0.396552 0.230678 0.637931
v 0.431034 0.253508 0.637931
v 0.465517 0.278240 0.637931
v 0.500000 0.304875 0.637931
v -0.500000 0.325803 0.603448
v -0.465517 0.299168 0.603448
v -0.431034 0.274435 0.603448
v -0.396552 0.251605 0.603448
v -0.362069 0.230678 0.603448
v -0.327586 0.211653 0.603448
v -0.293103 0.194530 0.603448
v -0.258621 0.179310 0.603448
v -0.224138 0.165993 0.603448
v -0.189655 0.154578 0.603448
v -0.155172 0.145065 0.603448
v -0.120690 0.137455 0.603448
v -0.086207 0.131748 0.603448
v -0.051724 0.127943 0.603448
v -0.017241 0.126040 0.603448
v 0.017241 0.126040 0.603448
v 0.051724 0.127943 0.603448
v 0.086207 0.131748 0.603448
v 0.120690 0.137455 0.603448
v 0.155172 0.145065 0.603448
v 0.189655 0.154578 0.603448
v 0.224138 0.165993 0.603448
v 0.258621 0.179310 0.603448
v 0.293103 0.194530 0.603448
v 0.327586 0.211653 0.603448
v 0.362069 0.230678 0.603448
v 0.396552 0.251605 0.603448
v 0.431034 0.274435 0.603448
v 0.465517 0.299168 0.603448
v 0.500000 0.325803 0.603448
v -0.500000 0.348633 0.568966
v -0.465517 0.321998 0.568966
v -0.431034 0.297265 0.568966
v -0.396552 0.274435 0.568966
v -0.362069 0.253508 0.568966
v -0.327586 0.234483 0.568966
v -0.293103 0.217360 0.568966
v -0.258621 0.202140 0.568966
v -0.224138 0.188823 0.568966
v -0.189655 0.177408 0.568966
v -0.155172 0.167895 0.568966
v -0.120690 0.160285 0.568966
v -0.086207 0.154578 0.568966
v -0.051724 0.150773 0.568966
v -0.017241 0.148870 0.568966
v 0.017241 0.148870 0.568966
v 0.051724 0.150773 0.568966
v 0.086207 0.154578 0.568966
v 0.120690 0.160285 0.568966
v 0.155172 0.167895 0.568966
v 0.189655 0.177408 0.568966
v 0.224138 0.188823 0.568966
v 0.258621 0.202140 0.568966
v 0.293103 0.217360 0.568966
v 0.327586 0.234483 0.568966
v 0.362069 0.253508 0.568966
v 0.396552 0.274435 0.568966
v 0.431034 0.297265 0.568966
v 0.465517 0.321998 0.568966
v 0.500000 0.348633 0.568966
v -0.500000 0.373365 0.534483
v -0.465517 0.346730 0.534483
v -0.431034 0.321998 0.534483
v -0.396552 0.299168 0.534483
v -0.362069 0.278240 0.534483
v -0.327586 0.259215 0.534483
v -0.293103 0.242093 0.534483
v -0.258621 0.226873 0.534483
v -0.224138 0.213555 0.534483
v -0.189655 0.202140 0.534483
v -0.155172 0.192628 0.534483
v -0.120690 0.185018 0.534483
v -0.086207 0.179310 0.534483
v -0.051724 0.175505 0.534483
v -0.017241 0.173603 0.534483
v 0.017241 0.173603 0.534483
v 0.051724 0.175505 0.534483
v 0.086207 0.179310 0.534483
v 0.120690 0.185018 0.534483
v 0.155172 0.192628 0.534483
v 0.189655 0.202140 0.534483
v 0.224138 0.213555 0.534483
v 0.258621 0.226873 0.534483
v 0.293103 0.242093 0.534483
v 0.327586 0.259215 0.534483
v 0.362069 0.278240 0.534483
v 0.396552 0.299168 0.534483
v 0.431034 0.321998 0.534483
v 0.465517 0.346730 0.534483
v 0.500000 0.373365 0.534483
v -0.500000 0.400000 0.500000
v -0.465517 0.373365 0.500000
v -0.431034 0.348633 0.500000
v -0.396552 0.325803 0.500000
v -0.362069 0.304875 0.500000
v -0.327586 0.285850 0.500000
v -0.293103 0.268728 0.500000
v -0.258621 0.253508 0.500000
v -0.224138 0.240190 0.500000
v -0.189655 0.228775 0.500000
v -0.155172 0.219263 0.500000
v -0.120690 0.211653 0.500000
v -0.086207 0.205945 0.500000
v -0.051724 0.202140 0.500000
v -0.017241 0.200238 0.500000
v 0.017241 0.200238 0.500000
v 0.051724 0.202140 0.500000
v 0.086207 0.205945 0.500000
v 0.120690 0.211653 0.500000
v 0.155172 0.219263 0.500000
v 0.189655 0.228775 0.500000
v 0.224138 0.240190 0.500000
v 0.258621 0.253508 0.500000
v 0.293103 0.268728 0.500000
v 0.327586 0.285850 0.500000
v 0.362069 0.304875 0.500000
v 0.396552 0.325803 0.500000
v 0.431034 0.348633 0.500000
v 0.465517 0.373365 0.500000
v 0.500000 0.400000 0.500000
vt 0.000000 1.000000
vt 0.034483 1.000000
vt 0.068966 1.000000
vt 0.103448 1.000000
vt 0.137931 1.000000
vt 0.172414 1.000000
vt 0.206897 1.000000
vt 0.241379 1.000000
vt 0.275862 1.000000
vt 0.310345 1.000000
vt 0.344828 1.000000
vt 0.379310 1.000000
vt 0.413793 1.000000
vt 0.448276 1.000000
vt 0.482759 1.000000
vt 0.517241 1.000000
vt 0.551724 1.000000
vt 0.586207 1.000000
vt 0.620690 1.000000
vt 0.655172 1.000000
vt 0.689655 1.000000
vt 0.724138 1.000000
vt 0.758621 1.000000
vt 0.793103 1.000000
vt 0.827586 1.000000
vt 0.862069 1.000000
vt 0.896552 1.000000
vt 0.931034 1.000000
vt 0.965517 1.000000
vt 1.000000 1.000000
vt 0.000000 0.965517
vt 0.034483 0.965517
vt 0.068966 0.965517
vt 0.103448 0.965517
vt 0.137931 0.965517
vt 0.172414 0.965517
vt 0.206897 0.965517
vt 0.241379 0.965517
vt 0.275862 0.965517
vt 0.310345 0.965517
vt 0.344828 0.965517
vt 0.379310 0.965517
vt 0.413793 0.965517
vt 0.448276 0.965517
vt 0.482759 0.965517
vt 0.517241 0.965517
vt 0.551724 0.965517
vt 0.586207 0.965517
vt 0.620690 0.965517
vt 0.655172 0.965517
vt 0.689655 0.965517
vt 0.724138 0.965517
vt 0.758621 0.965517
vt 0.793103 0.965517
vt 0.827586 0.965517
vt 0.862069 0.965517
vt 0.896552 0.965517
vt 0.931034 0.965517
vt 0.965517 0.965517
vt 1.000000 0.965517
vt 0.000000 0.931034
vt 0.034483 0.931034
vt 0.068966 0.931034
vt 0.103448 0.931034
vt 0.137931 0.931034
vt 0.172414 0.931034
vt 0.206897 0.931034
vt 0.241379 0.931034
vt 0.275862 0.931034
vt 0.310345 0.931034
vt 0.344828 0.931034
vt 0.379310 0.931034
vt 0.413793 0.931034
vt 0.448276 0.931034
vt 0.482759 0.931034
vt 0.517241 0.931034
vt 0.551724 0.931034
vt 0.586207 0.931034
vt 0.620690 0.931034
vt 0.655172 0.931034
vt 0.689655 0.931034
vt 0.724138 0.931034
vt 0.758621 0.931034
vt 0.793103 0.931034
vt 0.827586 0.931034
vt 0.862069 0.931034
vt 0.896552 0.931034
vt 0.931034 0.931034
vt 0.965517 0.931034
vt 1.000000 0.931034
vt 0.000000 0.896552
vt 0.034483 0.896552
vt 0.068966 0.896552
vt 0.103448 0.896552
vt 0.137931 0.896552
vt 0.172414 0.896552
vt 0.206897 0.896552
vt 0.241379 0.896552
vt 0.275862 0.896552
vt 0.310345 0.896552
vt 0.344828 0.896552
vt 0.379310 0.896552
vt 0.413793 0.896552
vt 0.448276 0.896552
vt 0.482759 0.896552
vt 0.517241 0.896552
vt 0.551724 0.896552
vt 0.586207 0.896552
vt 0.620690 0.896552
vt 0.655172 0.896552
vt 0.689655 0.896552
vt 0.724138 0.896552
vt 0.758621 0.896552
vt 0.793103 0.896552
vt 0.827586 0.896552
vt 0.862069 0.896552
vt 0.896552 0.896552
vt 0.931034 0.896552
vt 0.965517 0.896552
vt 1.000000 0.896552
vt 0.000000 0.862069
vt 0.034483 0.862069
vt 0.068966 0.862069
vt 0.103448 0.862069
vt 0.137931 0.862069
vt 0.172414 0.862069
vt 0.206897 0.862069
vt 0.241379 0.862069
vt 0.275862 0.862069
vt 0.310345 0.862069
vt 0.344828 0.862069
vt 0.379310 0.862069
vt 0.413793 0.862069
vt 0.448276 0.862069
vt 0.482759 0.862069
vt 0.517241 0.862069
vt 0.551724 0.862069
vt 0.586207 0.862069
vt 0.620690 0.862069
vt 0.655172 0.862069
vt 0.689655 0.862069
vt 0.724138 0.862069
vt 0.758621 0.862069
vt 0.793103 0.862069
vt 0.827586 0.862069
vt 0.862069 0.862069
vt 0.896552 0.862069
vt 0.931034 0.862069
vt 0.965517 0.862069
vt 1.000000 0.862069
vt 0.000000 0.827586
vt 0.034483 0.827586
vt 0.068966 0.827586
vt 0.103448 0.827586
vt 0.137931 0.827586
vt 0.172414 0.827586
vt 0.206897 0.827586
vt 0.241379 0.827586
vt 0.275862 0.827586
vt 0.310345 0.827586
vt 0.344828 0.827586
vt 0.379310 0.827586
vt 0.413793 0.827586
vt 0.448276 0.827586
vt 0.482759 0.827586
vt 0.517241 0.827586
vt 0.551724 0.827586
vt 0.586207 0.827586
vt 0.620690 0.827586
vt 0.655172 0.827586
vt 0.689655 0.827586
vt 0.724138 0.827586
vt 0.758621 0.827586
vt 0.793103 0.827586
vt 0.827586 0.827586
vt 0.862069 0.827586
vt 0.896552 0.827586
vt 0.931034 0.827586
vt 0.965517 0.827586
vt 1.000000 0.827586
vt 0.000000 0.793103
vt 0.034483 0.793103
vt 0.068966 0.793103
vt 0.103448 0.793103
vt 0.137931 0.793103
vt 0.172414 0.793103
vt 0.206897 0.793103
vt 0.241379 0.793103
vt 0.275862 0.793103
vt 0.310345 0.793103
vt 0.344828 0.793103
vt 0.379310 0.793103
vt 0.413793 0.793103
vt 0.448276 0.793103
vt 0.482759 0.793103
vt 0.517241 0.793103
vt 0.551724 0.793103
vt 0.586207 0.793103
vt 0.620690 0.793103
vt 0.655172 0.793103
vt 0.689655 0.793103
vt 0.724138 0.793103
vt 0.758621 0.793103
vt 0.793103 0.793103
vt 0.827586 0.793103
vt 0.862069 0.793103
vt 0.896552 0.793103
vt 0.931034 0.793103
vt 0.965517 0.793103
vt 1.000000 0.793103
vt 0.000000 0.758621
vt 0.034483 0.758621
vt 0.068966 0.758621
vt 0.103448 0.758621
vt 0.137931 0.758621
vt 0.172414 0.758621
vt 0.206897 0.758621
vt 0.241379 0.758621
vt 0.275862 0.758621
vt 0.310345 0.758621
vt 0.344828 0.758621
vt 0.379310 0.758621
vt 0.413793 0.758621
vt 0.448276 0.758621
vt 0.482759 0.758621
vt 0.517241 0.758621
vt 0.551724 0.758621
vt 0.586207 0.758621
vt 0.620690 0.758621
vt 0.655172 0.758621
vt 0.689655 0.758621
vt 0.724138 0.758621
vt 0.758621 0.758621
vt 0.793103 0.758621
vt 0.827586 0.758621
vt 0.862069 0.758621
vt 0.896552 0.758621
vt 0.931034 0.758621
vt 0.965517 0.758621
vt 1.000000 0.758621
vt 0.000000 0.724138
vt 0.034483 0.724138
vt 0.068966 0.724138
vt 0.103448 0.724138
vt 0.137931 0.724138
vt 0.172414 0.724138
vt 0.206897 0.724138
vt 0.241379 0.724138
vt 0.275862 0.724138
vt 0.310345 0.724138
vt 0.344828 0.724138
vt 0.379310 0.724138
vt 0.413793 0.724138
vt 0.448276 0.724138
vt 0.482759 0.724138
vt 0.517241 0.724138
vt 0.551724 0.724138
vt 0.586207 0.724138
vt 0.620690 0.724138
vt 0.655172 0.724138
vt 0.689655 0.724138
vt 0.724138 0.724138
vt 0.758621 0.724138
vt 0.793103 0.724138
vt 0.827586 0.724138
vt 0.862069 0.724138
vt 0.896552 0.724138
vt 0.931034 0.724138
vt 0.965517 0.724138
vt 1.000000 0.724138
vt 0.000000 0.689655
vt 0.034483 0.689655
vt 0.068966 0.689655
vt 0.103448 0.689655
vt 0.137931 0.689655
vt 0.172414 0.689655
vt 0.206897 0.689655
vt 0.241379 0.689655
vt 0.275862 0.689655
vt 0.310345 0.689655
vt 0.344828 0.689655
vt 0.379310 0.689655
vt 0.413793 0.689655
vt 0.448276 0.689655
vt 0.482759 0.689655
vt 0.517241 0.689655
vt 0.551724 0.689655
vt 0.586207 0.689655
vt 0.620690 0.689655
vt 0.655172 0.689655
vt 0.689655 0.689655
vt 0.724138 0.689655
vt 0.758621 0.689655
vt 0.793103 0.689655
vt 0.827586 0.689655
vt 0.862069 0.689655
vt 0.896552 0.689655
vt 0.931034 0.689655
vt 0.965517 0.689655
vt 1.000000 0.689655
vt 0.000000 0.655172
vt 0.034483 0.655172
vt 0.068966 0.655172
vt 0.103448 0.655172
vt 0.137931 0.655172
vt 0.172414 0.655172
vt 0.206897 0.655172
vt 0.241379 0.655172
vt 0.275862 0.655172
vt 0.310345 0.655172
vt 0.344828 0.655172
vt 0.379310 0.655172
vt 0.413793 0.655172
vt 0.448276 0.655172
vt 0.482759 0.655172
vt 0.517241 0.655172
vt 0.551724 0.655172
vt 0.586207 0.655172
vt 0.620690 0.655172
vt 0.655172 0.655172
vt 0.689655 0.655172
vt 0.724138 0.655172
vt 0.758621 0.655172
vt 0.793103 0.655172
vt 0.827586 0.655172
vt 0.862069 0.655172
vt 0.896552 0.655172
vt 0.931034 0.655172
vt 0.965517 0.655172
vt 1.000000 0.655172
vt 0.000000 0.620690
vt 0.034483 0.620690
vt 0.068966 0.620690
vt 0.103448 0.620690
vt 0.137931 0.620690
vt 0.172414 0.620690
vt 0.206897 0.620690
vt 0.241379 0.620690
vt 0.275862 0.620690
vt 0.310345 0.620690
vt 0.344828 0.620690
vt 0.379310 0.620690
vt 0.413793 0.620690
vt 0.448276 0.620690
vt 0.482759 0.620690
vt 0.517241 0.620690
vt 0.551724 0.620690
vt 0.586207 0.620690
vt 0.620690 0.620690
vt 0.655172 0.620690
vt 0.689655 0.620690
vt 0.724138 0.620690
vt 0.758621 0.620690
vt 0.793103 0.620690
vt 0.827586 0.620690
vt 0.862069 0.620690
vt 0.896552 0.620690
vt 0.931034 0.620690
vt 0.965517 0.620690
vt 1.000000 0.620690
vt 0.000000 0.586207
vt 0.034483 0.586207
vt 0.068966 0.586207
vt 0.103448 0.586207
vt 0.137931 0.586207
vt 0.172414 0.586207
vt 0.206897 0.586207
vt 0.241379 0.586207
vt 0.275862 0.586207
vt 0.310345 0.586207
vt 0.344828 0.586207
vt 0.379310 0.586207
vt 0.413793 0.586207
vt 0.448276 0.586207
vt 0.482759 0.586207
vt 0.517241 0.586207
vt 0.551724 0.586207
vt 0.586207 0.586207
vt 0.620690 0.586207
vt 0.655172 0.586207
vt 0.689655 0.586207
vt 0.724138 0.586207
vt 0.758621 0.586207
vt 0.793103 0.586207
vt 0.827586 0.586207
vt 0.862069 0.586207
vt 0.896552 0.586207
vt 0.931034 0.586207
vt 0.965517 0.586207
vt 1.000000 0.586207
vt 0.000000 0.551724
vt 0.034483 0.551724
vt 0.068966 0.551724
vt 0.103448 0.551724
vt 0.137931 0.551724
vt 0.172414 0.551724
vt 0.206897 0.551724
vt 0.241379 0.551724
vt 0.275862 0.551724
vt 0.310345 0.551724
vt 0.344828 0.551724
vt 0.379310 0.551724
vt 0.413793 0.551724
vt 0.448276 0.551724
vt 0.482759 0.551724
vt 0.517241 0.551724
vt 0.551724 0.551724
vt 0.586207 0.551724
vt 0.620690 0.551724
vt 0.655172 0.551724
vt 0.689655 0.551724
vt 0.724138 0.551724
vt 0.758621 0.551724
vt 0.793103 0.551724
vt 0.827586 0.551724
vt 0.862069 0.551724
vt 0.896552 0.551724
vt 0.931034 0.551724
vt 0.965517 0.551724
vt 1.000000 0.551724
vt 0.000000 0.517241
vt 0.034483 0.517241
vt 0.068966 0.517241
vt 0.103448 0.517241
vt 0.137931 0.517241
vt 0.172414 0.517241
vt 0.206897 0.517241
vt 0.241379 0.517241
vt 0.275862 0.517241
vt 0.310345 0.517241
vt 0.344828 0.517241
vt 0.379310 0.517241
vt 0.413793 0.517241
vt 0.448276 0.517241
vt 0.482759 0.517241
vt 0.517241 0.517241
vt 0.551724 0.517241
vt 0.586207 0.517241
vt 0.620690 0.517241
vt 0.655172 0.517241
vt 0.689655 0.517241
vt 0.724138 0.517241
vt 0.758621 0.517241
vt 0.793103 0.517241
vt 0.827586 0.517241
vt 0.862069 0.517241
vt 0.896552 0.517241
vt 0.931034 0.517241
vt 0.965517 0.517241
vt 1.000000 0.517241
vt 0.000000 0.482759
vt 0.034483 0.482759
vt 0.068966 0.482759
vt 0.103448 0.482759
vt 0.137931 0.482759
vt 0.172414 0.482759
vt 0.206897 0.482759
vt 0.241379 0.482759
vt 0.275862 0.482759
vt 0.310345 0.482759
vt 0.344828 0.482759
vt 0.379310 0.482759
vt 0.413793 0.482759
vt 0.448276 0.482759
vt 0.482759 0.482759
vt 0.517241 0.482759
vt 0.551724 0.482759
vt 0.586207 0.482759
vt 0.620690 0.482759
vt 0.655172 0.482759
vt 0.689655 0.482759
vt 0.724138 0.482759
vt 0.758621 0.482759
vt 0.793103 0.482759
vt 0.827586 0.482759
vt 0.862069 0.482759
vt 0.896552 0.482759
vt 0.931034 0.482759
vt 0.965517 0.482759
vt 1.000000 0.482759
vt 0.000000 0.448276
vt 0.034483 0.448276
vt 0.068966 0.448276
vt 0.103448 0.448276
vt 0.137931 0.448276
vt 0.172414 0.448276
vt 0.206897 0.448276
vt 0.241379 0.448276
vt 0.275862 0.448276
vt 0.310345 0.448276
vt 0.344828 0.448276
vt 0.379310 0.448276
vt 0.413793 0.448276
vt 0.448276 0.448276
vt 0.482759 0.448276
vt 0.517241 0.448276
vt 0.551724 0.448276
vt 0.586207 0.448276
vt 0.620690 0.448276
vt 0.655172 0.448276
vt 0.689655 0.448276
vt 0.724138 0.448276
vt 0.758621 0.448276
vt 0.793103 0.448276
vt 0.827586 0.448276
vt 0.862069 0.448276
vt 0.896552 0.448276
vt 0.931034 0.448276
vt 0.965517 0.448276
vt 1.000000 0.448276
vt 0.000000 0.413793
vt 0.034483 0.413793
vt 0.068966 0.413793
vt 0.103448 0.413793
vt 0.137931 0.413793
vt 0.172414 0.413793
vt 0.206897 0.413793
vt 0.241379 0.413793
vt 0.275862 0.413793
vt 0.310345 0.413793
vt 0.344828 0.413793
vt 0.379310 0.413793
vt 0.413793 0.413793
vt 0.448276 0.413793
vt 0.482759 0.413793
vt 0.517241 0.413793
vt 0.551724 0.413793
vt 0.586207 0.413793
vt 0.620690 0.413793
vt 0.655172 0.413793
vt 0.689655 0.413793
vt 0.724138 0.413793
vt 0.758621 0.413793
vt 0.793103 0.413793
vt 0.827586 0.413793
vt 0.862069 0.413793
vt 0.896552 0.413793
vt 0.931034 0.413793
vt 0.965517 0.413793
vt 1.000000 0.413793
vt 0.000000 0.379310
vt 0.034483 0.379310
vt 0.068966 0.379310
vt 0.103448 0.379310
vt 0.137931 0.379310
vt 0.172414 0.379310
vt 0.206897 0.379310
vt 0.241379 0.379310
vt 0.275862 0.379310
vt 0.310345 0.379310
vt 0.344828 0.379310
vt 0.379310 0.379310
vt 0.413793 0.379310
vt 0.448276 0.379310
vt 0.482759 0.379310
vt 0.517241 0.379310
vt 0.551724 0.379310
vt 0.586207 0.379310
vt 0.620690 0.379310
vt 0.655172 0.379310
vt 0.689655 0.379310
vt 0.724138 0.379310
vt 0.758621 0.379310
vt 0.793103 0.379310
vt 0.827586 0.379310
vt 0.862069 0.379310
vt 0.896552 0.379310
vt 0.931034 0.379310
vt 0.965517 0.379310
vt 1.000000 0.379310
vt 0.000000 0.344828
vt 0.034483 0.344828
vt 0.068966 0.344828
vt 0.103448 0.344828
vt 0.137931 0.344828
vt 0.172414 0.344828
vt 0.206897 0.344828
vt 0.241379 0.344828
vt 0.275862 0.344828
vt 0.310345 0.344828
vt 0.344828 0.344828
vt 0.379310 0.344828
vt 0.413793 0.344828
vt 0.448276 0.344828
vt 0.482759 0.344828
vt 0.517241 0.344828
vt 0.551724 0.344828
vt 0.586207 0.344828
vt 0.620690 0.344828
vt 0.655172 0.344828
vt 0.689655 0.344828
vt 0.724138 0.344828
vt 0.758621 0.344828
vt 0.793103 0.344828
vt 0.827586 0.344828
vt 0.862069 0.344828
vt 0.896552 0.344828
vt 0.931034 0.344828
vt 0.965517 0.344828
vt 1.000000 0.344828
vt 0.000000 0.310345
vt 0.034483 0.310345
vt 0.068966 0.310345
vt 0.103448 0.310345
vt 0.137931 0.310345
vt 0.172414 0.310345
vt 0.206897 0.310345
vt 0.241379 0.310345
vt 0.275862 0.310345
vt 0.310345 0.310345
vt 0.344828 0.310345
vt 0.379310 0.310345
vt 0.413793 0.310345
vt 0.448276 0.310345
vt 0.482759 0.310345
vt 0.517241 0.310345
vt 0.551724 0.310345
vt 0.586207 0.310345
vt 0.620690 0.310345
vt 0.655172 0.310345
vt 0.689655 0.310345
vt 0.724138 0.310345
vt 0.758621 0.310345
vt 0.793103 0.310345
vt 0.827586 0.310345
vt 0.862069 0.310345
vt 0.896552 0.310345
vt 0.931034 0.310345
vt 0.965517 0.310345
vt 1.000000 0.310345
vt 0.000000 0.275862
vt 0.034483 0.275862
vt 0.068966 0.275862
vt 0.103448 0.275862
vt 0.137931 0.275862
vt 0.172414 0.275862
vt 0.206897 0.275862
vt 0.241379 0.275862
vt 0.275862 0.275862
vt 0.310345 0.275862
vt 0.344828 0.275862
vt 0.379310 0.275862
vt 0.413793 0.275862
vt 0.448276 0.275862
vt 0.482759 0.275862
vt 0.517241 0.275862
vt 0.551724 0.275862
vt 0.586207 0.275862
vt 0.620690 0.275862
vt 0.655172 0.275862
vt 0.689655 0.275862
vt 0.724138 0.275862
vt 0.758621 0.275862
vt 0.793103 0.275862
vt 0.827586 0.275862
vt 0.862069 0.275862
vt 0.896552 0.275862
vt 0.931034 0.275862
vt 0.965517 0.275862
vt 1.000000 0.275862
vt 0.000000 0.241379
vt 0.034483 0.241379
vt 0.068966 0.241379
vt 0.103448 0.241379
vt 0.137931 0.241379
vt 0.172414 0.241379
vt 0.206897 0.241379
vt 0.241379 0.241379
vt 0.275862 0.241379
vt 0.310345 0.241379
vt 0.344828 0.241379
vt 0.379310 0.241379
vt 0.413793 0.241379
vt 0.448276 0.241379
vt 0.482759 0.241379
vt 0.517241 0.241379
vt 0.551724 0.241379
vt 0.586207 0.241379
vt 0.620690 0.241379
vt 0.655172 0.241379
vt 0.689655 0.241379
vt 0.724138 0.241379
vt 0.758621 0.241379
vt 0.793103 0.241379
vt 0.827586 0.241379
vt 0.862069 0.241379
vt 0.896552 0.241379
vt 0.931034 0.241379
vt 0.965517 0.241379
vt 1.000000 0.241379
vt 0.000000 0.206897
vt 0.034483 0.206897
vt 0.068966 0.206897
vt 0.103448 0.206897
vt 0.137931 0.206897
vt 0.172414 0.206897
vt 0.206897 0.206897
vt 0.241379 0.206897
vt 0.275862 0.206897
vt 0.310345 0.206897
vt 0.344828 0.206897
vt 0.379310 0.206897
vt 0.413793 0.206897
vt 0.448276 0.206897
vt 0.482759 0.206897
vt 0.517241 0.206897
vt 0.551724 0.206897
vt 0.586207 0.206897
vt 0.620690 0.206897
vt 0.655172 0.206897
vt 0.689655 0.206897
vt 0.724138 0.206897
vt 0.758621 0.206897
vt 0.793103 0.206897
vt 0.827586 0.206897
vt 0.862069 0.206897
vt 0.896552 0.206897
vt 0.931034 0.206897
vt 0.965517 0.206897
vt 1.000000 0.206897
vt 0.000000 0.172414
vt 0.034483 0.172414
vt 0.068966 0.172414
vt 0.103448 0.172414
vt 0.137931 0.172414
vt 0.172414 0.172414
vt 0.206897 0.172414
vt 0.241379 0.172414
vt 0.275862 0.172414
vt 0.310345 0.172414
vt 0.344828 0.172414
vt 0.379310 0.172414
vt 0.413793 0.172414
vt 0.448276 0.172414
vt 0.482759 0.172414
vt 0.517241 0.172414
vt 0.551724 0.172414
vt 0.586207 0.172414
vt 0.620690 0.172414
vt 0.655172 0.172414
vt 0.689655 0.172414
vt 0.724138 0.172414
vt 0.758621 0.172414
vt 0.793103 0.172414
vt 0.827586 0.172414
vt 0.862069 0.172414
vt 0.896552 0.172414
vt 0.931034 0.172414
vt 0.965517 0.172414
vt 1.000000 0.172414
vt 0.000000 0.137931
vt 0.034483 0.137931
vt 0.068966 0.137931
vt 0.103448 0.137931
vt 0.137931 0.137931
vt 0.172414 0.137931
vt 0.206897 0.137931
vt 0.241379 0.137931
vt 0.275862 0.137931
vt 0.310345 0.137931
vt 0.344828 0.137931
vt 0.379310 0.137931
vt 0.413793 0.137931
vt 0.448276 0.137931
vt 0.482759 0.137931
vt 0.517241 0.137931
vt 0.551724 0.137931
vt 0.586207 0.137931
vt 0.620690 0.137931
vt 0.655172 0.137931
vt 0.689655 0.137931
vt 0.724138 0.137931
vt 0.758621 0.137931
vt 0.793103 0.137931
vt 0.827586 0.137931
vt 0.862069 0.137931
vt 0.896552 0.137931
vt 0.931034 0.137931
vt 0.965517 0.137931
vt 1.000000 0.137931
vt 0.000000 0.103448
vt 0.034483 0.103448
vt 0.068966 0.103448
vt 0.103448 0.103448
vt 0.137931 0.103448
vt 0.172414 0.103448
vt 0.206897 0.103448
vt 0.241379 0.103448
vt 0.275862 0.103448
vt 0.310345 0.103448
vt 0.344828 0.103448
vt 0.379310 0.103448
vt 0.413793 0.103448
vt 0.448276 0.103448
vt 0.482759 0.103448
vt 0.517241 0.103448
vt 0.551724 0.103448
vt 0.586207 0.103448
vt 0.620690 0.103448
vt 0.655172 0.103448
vt 0.689655 0.103448
vt 0.724138 0.103448
vt 0.758621 0.103448
vt 0.793103 0.103448
vt 0.827586 0.103448
vt 0.862069 0.103448
vt 0.896552 0.103448
vt 0.931034 0.103448
vt 0.965517 0.103448
vt 1.000000 0.103448
vt 0.000000 0.068966
vt 0.034483 0.068966
vt 0.068966 0.068966
vt 0.103448 0.068966
vt 0.137931 0.068966
vt 0.172414 0.068966
vt 0.206897 0.068966
vt 0.241379 0.068966
vt 0.275862 0.068966
vt 0.310345 0.068966
vt 0.344828 0.068966
vt 0.379310 0.068966
vt 0.413793 0.068966
vt 0.448276 0.068966
vt 0.482759 0.068966
vt 0.517241 0.068966
vt 0.551724 0.068966
vt 0.586207 0.068966
vt 0.620690 0.068966
vt 0.655172 0.068966
vt 0.689655 0.068966
vt 0.724138 0.068966
vt 0.758621 0.068966
vt 0.793103 0.068966
vt 0.827586 0.068966
vt 0.862069 0.068966
vt 0.896552 0.068966
vt 0.931034 0.068966
vt 0.965517 0.068966
vt 1.000000 0.068966
vt 0.000000 0.034483
vt 0.034483 0.034483
vt 0.068966 0.034483
vt 0.103448 0.034483
vt 0.137931 0.034483
vt 0.172414 0.034483
vt 0.206897 0.034483
vt 0.241379 0.034483
vt 0.275862 0.034483
vt 0.310345 0.034483
vt 0.344828 0.034483
vt 0.379310 0.034483
vt 0.413793 0.034483
vt 0.448276 0.034483
vt 0.482759 0.034483
vt 0.517241 0.034483
vt 0.551724 0.034483
vt 0.586207 0.034483
vt 0.620690 0.034483
vt 0.655172 0.034483
vt 0.689655 0.034483
vt 0.724138 0.034483
vt 0.758621 0.034483
vt 0.793103 0.034483
vt 0.827586 0.034483
vt 0.862069 0.034483
vt 0.896552 0.034483
vt 0.931034 0.034483
vt 0.965517 0.034483
vt 1.000000 0.034483
vt 0.000000 0.000000
vt 0.034483 0.000000
vt 0.068966 0.000000
vt 0.103448 0.000000
vt 0.137931 0.000000
vt 0.172414 0.000000
vt 0.206897 0.000000
vt 0.241379 0.000000
vt 0.275862 0.000000
vt 0.310345 0.000000
vt 0.344828 0.000000
vt 0.379310 0.000000
vt 0.413793 0.000000
vt 0.448276 0.000000
vt 0.482759 0.000000
vt 0.517241 0.000000
vt 0.551724 0.000000
vt 0.586207 0.000000
vt 0.620690 0.000000
vt 0.655172 0.000000
vt 0.689655 0.000000
vt 0.724138 0.000000
vt 0.758621 0.000000
vt 0.793103 0.000000
vt 0.827586 0.000000
vt 0.862069 0.000000
vt 0.896552 0.000000
vt 0.931034 0.000000
vt 0.965517 0.000000
vt 1.000000 0.000000
f 1/1 2/2 31/31
f 2/2 32/32 31/31
f 2/2 3/3 32/32
f 3/3 33/33 32/32
f 3/3 4/4 33/33
f 4/4 34/34 33/33
f 4/4 5/5 34/34
f 5/5 35/35 34/34
f 5/5 6/6 35/35
f 6/6 36/36 35/35
f 6/6 7/7 36/36
f 7/7 37/37 36/36
f 7/7 8/8 37/37
f 8/8 38/38 37/37
f 8/8 9/9 38/38
f 9/9 39/39 38/38
f 9/9 10/10 39/39
f 10/10 40/40 39/39
f 10/10 11/11 40/40
f 11/11 41/41 40/40
f 11/11 12/12 41/41
f 12/12 42/42 41/41
f 12/12 13/13 42/42
f 13/13 43/43 42/42
f 13/13 14/14 43/43
f 14/14 44/44 43/43
f 14/14 15/15 44/44
f 15/15 45/45 44/44
f 15/15 16/16 45/45
f 16/16 46/46 45/45
f 16/16 17/17 46/46
f 17/17 47/47 46/46
f 17/17 18/18 47/47
f 18/18 48/48 47/47
f 18/18 19/19 48/48
f 19/19 49/49 48/48
f 19/19 20/20 49/49
f 20/20 50/50 49/49
f 20/20 21/21 50/50
f 21/21 51/51 50/50
f 21/21 22/22 51/51
f 22/22 52/52 51/51
f 22/22 23/23 52/52
f 23/23 53/53 52/52
f 23/23 24/24 53/53
f 24/24 54/54 53/53
f 24/24 25/25 54/54
f 25/25 55/55 54/54
f 25/25 26/26 55/55
f 26/26 56/56 55/55
f 26/26 27/27 56/56
f 27/27 57/57 56/56
f 27/27 28/28 57/57
f 28/28 58/58 57/57
f 28/28 29/29 58/58
f 29/29 59/59 58/58
f 29/29 30/30 59/59
f 30/30 60/60 59/59
f 31/31 32/32 61/61
f 32/32 62/62 61/61
f 32/32 33/33 62/62
f 33/33 63/63 62/62
f 33/33 34/34 63/63
f 34/34 64/64 63/63
f 34/34 35/35 64/64
f 35/35 65/65 64/64
f 35/35 36/36 65/65
f 36/36 66/66 65/65
f 36/36 37/37 66/66
f 37/37 67/67 66/66
f 37/37 38/38 67/67
f 38/38 68/68 67/67
f 38/38 39/39 68/68
f 39/39 69/69 68/68
f 39/39 40/40 69/69
f 40/40 70/70 69/69
f 40/40 41/41 70/70
f 41/41 71/71 70/70
f 41/41 42/42 71/71
f 42/42 72/72 71/71
f 42/42 43/43 72/72
f 43/43 73/73 72/72
f 43/43 44/44 73/73
f 44/44 74/74 73/73
f 44/44 45/45 74/74
f 45/45 75/75 74/74
f 45/45 46/46 75/75
f 46/46 76/76 75/75
f 46/46 47/47 76/76
f 47/47 77/77 76/76
f 47/47 48/48 77/77
f 48/48 78/78 77/77
f 48/48 49/49 78/78
f 49/49 79/79 78/78
f 49/49 50/50 79/79
f 50/50 80/80 79/79
f 50/50 51/51 80/80
f 51/51 81/81 80/80
f 51/51 52/52 81/81
f 52/52 82/82 81/81
f 52/52 53/53 82/82
f 53/53 83/83 82/82
f 53/53 54/54 83/83
f 54/54 84/84 83/83
f 54/54 55/55 84/84
f 55/55 85/85 84/84
f 55/55 56/56 85/85
f 56/56 86/86 85/85
f 56/56 57/57 86/86
f 57/57 87/87 86/86
f 57/57 58/58 87/87
f 58/58 88/88 87/87
f 58/58 59/59 88/88
f 59/59 89/89 88/88
f 59/59 60/60 89/89
f 60/60 90/90 89/89
f 61/61 62/62 91/91
f 62/62 92/92 91/91
f 62/62 63/63 92/92
f 63/63 93/93 92/92
f 63/63 64/64 93/93
f 64/64 94/94 93/93
f 64/64 65/65 94/94
f 65/65 95/95 94/94
f 65/65 66/66 95/95
f 66/66 96/96 95/95
f 66/66 67/67 96/96
f 67/67 97/97 96/96
f 67/67 68/68 97/97
f 68/68 98/98 97/97
f 68/68 69/69 98/98
f 69/69 99/99 98/98
f 69/69 70/70 99/99
f 70/70 100/100 99/99
f 70/70 71/71 100/100
f 71/71 101/101 100/100
f 71/71 72/72 101/101
f 72/72 102/102 101/101
f 72/72 73/73 102/102
f 73/73 103/103 102/102
f 73/73 74/74 103/103
f 74/74 104/104 103/103
f 74/74 75/75 104/104
f 75/75 105/105 104/104
f 75/75 76/76 105/105
f 76/76 106/106 105/105
f 76/76 77/77 106/106
f 77/77 107/107 106/106
f 77/77 78/78 107/107
f 78/78 108/108 107/107
f 78/78 79/79 108/108
f 79/79 109/109 108/108
f 79/79 80/80 109/109
f 80/80 110/110 109/109
f 80/80 81/81 110/110
f 81/81 111/111 110/110
f 81/81 82/82 111/111
f 82/82 112/112 111/111
f 82/82 83/83 112/112
f 83/83 113/113 112/112
f 83/83 84/84 113/113
f 84/84 114/114 113/113
f 84/84 85/85 114/114
f 85/85 115/115 114/114
f 85/85 86/86 115/115
f 86/86 116/116 115/115
f 86/86 87/87 116/116
f 87/87 117/117 116/116
f 87/87 88/88 117/117
f 88/88 118/118 117/117
f 88/88 89/89 118/118
f 89/89 119/119 118/118
f 89/89 90/90 119/119
f 90/90 120/120 119/119
f 91/91 92/92 121/121
f 92/92 122/122 121/121
f 92/92 93/93 122/122
f 93/93 123/123 122/122
f 93/93 94/94 123/123
f 94/94 124/124 123/123
f 94/94 95/95 124/124
f 95/95 125/125 124/124
f 95/95 96/96 125/125
f 96/96 126/126 125/125
f 96/96 97/97 126/126
f 97/97 127/127 126/126
f 97/97 98/98 127/127
f 98/98 128/128 127/127
f 98/98 99/99 128/128
f 99/99 129/129 128/128
f 99/99 100/100 129/129
f 100/100 130/130 129/129
f 100/100 101/101 130/130
f 101/101 131/131 130/130
f 101/101 102/102 131/131
f 102/102 132/132 131/131
f 102/102 103/103 132/132
f 103/103 133/133 132/132
f 103/103 104/104 133/133
f 104/104 134/134 133/133
f 104/104 105/105 134/134
f 105/105 135/135 134/134
f 105/105 106/106 135/135
f 106/106 136/136 135/135
f 106/106 107/107 136/136
f 107/107 137/137 136/136
f 107/107 108/108 137/137
f 108/108 138/138 137/137
f 108/108 109/109 138/138
f 109/109 139/139 138/138
f 109/109 110/110 139/139
f 110/110 140/140 139/139
f 110/110 111/111 140/140
f 111/111 141/141 140/140
f 111/111 112/112 141/141
f 112/112 142/142 141/141
f 112/112 113/113 142/142
f 113/113 143/143 142/142
f 113/113 114/114 143/143
f 114/114 144/144 143/143
f 114/114 115/115 144/144
f 115/115 145/145 144/144
f 115/115 116/116 145/145
f 116/116 146/146 145/145
f 116/116 117/117 146/146
f 117/117 147/147 146/146
f 117/117 118/118 147/147
f 118/118 148/148 147/147
f 118/118 119/119 148/148
f 119/119 149/149 148/148
f 119/119 120/120 149/149
f 120/120 150/150 149/149
f 121/121 122/122 151/151
f 122/122 152/152 151/151
f 122/122 123/123 152/152
f 123/123 153/153 152/152
f 123/123 124/124 153/153
f 124/124 154/154 153/153
f 124/124 125/125 154/154
f 125/125 155/155 154/154
f 125/125 126/126 155/155
f 126/126 156/156 155/155
f 126/126 127/127 156/156
f 127/127 157/157 156/156
f 127/127 128/128 157/157
f 128/128 158/158 157/157
f 128/128 129/129 158/158
f 129/129 159/159 158/158
f 129/129 130/130 159/159
f 130/130 160/160 159/159
f 130/130 131/131 160/160
f 131/131 161/161 160/160
f 131/131 132/132 161/161
f 132/132 162/162 161/161
f 132/132 133/133 162/162
f 133/133 163/163 162/162
f 133/133 134/134 163/163
f 134/134 164/164 163/163
f 134/134 135/135 164/164
f 135/135 165/165 164/164
f 135/135 136/136 165/165
f 136/136 166/166 165/165
f 136/136 137/137 166/166
f 137/137 167/167 166/166
f 137/137 138/138 167/167
f 138/138 168/168 167/167
f 138/138 139/139 168/168
f 139/139 169/169 168/168
f 139/139 140/140 169/169
f 140/140 170/170 169/169
f 140/140 141/141 170/170
f 141/141 171/171 170/170
f 141/141 142/142 171/171
f 142/142 172/172 171/171
f 142/142 143/143 172/172
f 143/143 173/173 172/172
f 143/143 144/144 173/173
f 144/144 174/174 173/173
f 144/144 145/145 174/174
f 145/145 175/175 174/174
f 145/145 146/146 175/175
f 146/146 176/176 175/175
f 146/146 147/147 176/176
f 147/147 177/177 176/176
f 147/147 148/148 177/177
f 148/148 178/178 177/177
f 148/148 149/149 178/178
f 149/149 179/179 178/178
f 149/149 150/150 179/179
f 150/150 180/180 179/179
f 151/151 152/152 181/181
f 152/152 182/182 181/181
f 152/152 153/153 182/182
f 153/153 183/183 182/182
f 153/153 154/154 183/183
f 154/154 184/184 183/183
f 154/154 155/155 184/184
f 155/155 185/185 184/184
f 155/155 156/156 185/185
f 156/156 186/186 185/185
f 156/156 157/157 186/186
f 157/157 187/187 186/186
f 157/157 158/158 187/187
f 158/158 188/188 187/187
f 158/158 159/159 188/188
f 159/159 189/189 188/188
f 159/159 160/160 189/189
f 160/160 190/190 189/189
f 160/160 161/161 190/190
f 161/161 191/191 190/190
f 161/161 162/162 191/191
f 162/162 192/192 191/191
f 162/162 163/163 192/192
f 163/163 193/193 192/192
f 163/163 164/164 193/193
f 164/164 194/194 193/193
f 164/164 165/165 194/194
f 165/165 195/195 194/194
f 165/165 166/166 195/195
f 166/166 196/196 195/195
f 166/166 167/167 196/196
f 167/167 197/197 196/196
f 167/167 168/168 197/197
f 168/168 198/198 197/197
f 168/168 169/169 198/198
f 169/169 199/199 198/198
f 169/169 170/170 199/199
f 170/170 200/200 199/199
f 170/170 171/171 200/200
f 171/171 201/201 200/200
f 171/171 172/172 201/201
f 172/172 202/202 201/201
f 172/172 173/173 202/202
f 173/173 203/203 202/202
f 173/173 174/174 203/203
f 174/174 204/204 203/203
f 174/174 175/175 204/204
f 175/175 205/205 204/204
f 175/175 176/176 205/205
f 176/176 206/206 205/205
f 176/176 177/177 206/206
f 177/177 207/207 206/206
f 177/177 178/178 207/207
f 178/178 208/208 207/207
f 178/178 179/179 208/208
f 179/179 209/209 208/208
f 179/179 180/180 209/209
f 180/180 210/210 209/209
f 181/181 182/182 211/211
f 182/182 212/212 211/211
f 182/182 183/183 212/212
f 183/183 213/213 212/212
f 183/183 184/184 213/213
f 184/184 214/214 213/213
f 184/184 185/185 214/214
f 185/185 215/215 214/214
f 185/185 186/186 215/215
f 186/186 216/216 215/215
f 186/186 187/187 216/216
f 187/187 217/217 216/216
f 187/187 188/188 217/217
f 188/188 218/218 217/217
f 188/188 189/189 218/218
f 189/189 219/219 218/218
f 189/189 190/190 219/219
f 190/190 220/220 219/219
f 190/190 191/191 220/220
f 191/191 221/221 220/220
f 191/191 192/192 221/221
f 192/192 222/222 221/221
f 192/192 193/193 222/222
f 193/193 223/223 222/222
f 193/193 194/194 223/223
f 194/194 224/224 223/223
f 194/194 195/195 224/224
f 195/195 225/225 224/224
f 195/195 196/196 225/225
f 196/196 226/226 225/225
f 196/196 197/197 226/226
f 197/197 227/227 226/226
f 197/197 198/198 227/227
f 198/198 228/228 227/227
f 198/198 199/199 228/228
f 199/199 229/229 228/228
f 199/199 200/200 229/229
f 200/200 230/230 229/229
f 200/200 201/201 230/230
f 201/201 231/231 230/230
f 201/201 202/202 231/231
f 202/202 232/232 231/231
f 202/202 203/203 232/232
f 203/203 233/233 232/232
f 203/203 204/204 233/233
f 204/204 234/234 233/233
f 204/204 205/205 234/234
f 205/205 235/235 234/234
f 205/205 206/206 235/235
f 206/206 236/236 235/235
f 206/206 207/207 236/236
f 207/207 237/237 236/236
f 207/207 208/208 237/237
f 208/208 238/238 237/237
f 208/208 209/209 238/238
f 209/209 239/239 238/238
f 209/209 210/210 239/239
f 210/210 240/240 239/239
f 211/211 212/212 241/241
f 212/212 242/242 241/241
f 212/212 213/213 242/242
f 213/213 243/243 242/242
f 213/213 214/214 243/243
f 214/214 244/244 243/243
f 214/214 215/215 244/244
f 215/215 245/245 244/244
f 215/215 216/216 245/245
f 216/216 246/246 245/245
f 216/216 217/217 246/246
f 217/217 247/247 246/246
f 217/217 218/218 247/247
f 218/218 248/248 247/247
f 218/218 219/219 248/248
f 219/219 249/249 248/248
f 219/219 220/220 249/249
f 220/220 250/250 249/249
f 220/220 221/221 250/250
f 221/221 251/251 250/250
f 221/221 222/222 251/251
f 222/222 252/252 251/251
f 222/222 223/223 252/252
f 223/223 253/253 252/252
f 223/223 224/224 253/253
f 224/224 254/254 253/253
f 224/224 225/225 254/254
f 225/225 255/255 254/254
f 225/225 226/226 255/255
f 226/226 256/256 255/255
f 226/226 227/227 256/256
f 227/227 257/257 256/256
f 227/227 228/228 257/257
f 228/228 258/258 257/257
f 228/228 229/229 258/258
f 229/229 259/259 258/258
f 229/229 230/230 259/259
f 230/230 260/260 259/259
f 230/230 231/231 260/260
f 231/231 261/261 260/260
f 231/231 232/232 261/261
f 232/232 262/262 261/261
f 232/232 233/233 262/262
f 233/233 263/263 262/262
f 233/233 234/234 263/263
f 234/234 264/264 263/263
f 234/234 235/235 264/264
f 235/235 265/265 264/264
f 235/235 236/236 265/265
f 236/236 266/266 265/265
f 236/236 237/237 266/266
f 237/237 267/267 266/266
f 237/237 238/238 267/267
f 238/238 268/268 267/267
f 238/238 239/239 268/268
f 239/239 269/269 268/268
f 239/239 240/240 269/269
f 240/240 270/270 269/269
f 241/241 242/242 271/271
f 242/242 272/272 271/271
f 242/242 243/243 272/272
f 243/243 273/273 272/272
f 243/243 244/244 273/273
f 244/244 274/274 273/273
f 244/244 245/245 274/274
f 245/245 275/275 274/274
f 245/245 246/246 275/275
f 246/246 276/276 275/275
f 246/246 247/247 276/276
f 247/247 277/277 276/276
f 247/247 248/248 277/277
f 248/248 278/278 277/277
f 248/248 249/249 278/278
f 249/249 279/279 278/278
f 249/249 250/250 279/279
f 250/250 280/280 279/279
f 250/250 251/251 280/280
f 251/251 281/281 280/280
f 251/251 252/252 281/281
f 252/252 282/282 281/281
f 252/252 253/253 282/282
f 253/253 283/283 282/282
f 253/253 254/254 283/283
f 254/254 284/284 283/283
f 254/254 255/255 284/284
f 255/255 285/285 284/284
f 255/255 256/256 285/285
f 256/256 286/286 285/285
f 256/256 257/257 286/286
f 257/257 287/287 286/286
f 257/257 258/258 287/287
f 258/258 288/288 287/287
f 258/258 259/259 288/288
f 259/259 289/289 288/288
f 259/259 260/260 289/289
f 260/260 290/290 289/289
f 260/260 261/261 290/290
f 261/261 291/291 290/290
f 261/261 262/262 291/291
f 262/262 292/292 291/291
f 262/262 263/263 292/292
f 263/263 293/293 292/292
f 263/263 264/264 293/293
f 264/264 294/294 293/293
f 264/264 265/265 294/294
f 265/265 295/295 294/294
f 265/265 266/266 295/295
f 266/266 296/296 295/295
f 266/266 267/267 296/296
f 267/267 297/297 296/296
f 267/267 268/268 297/297
f 268/268 298/298 297/297
f 268/268 269/269 298/298
f 269/269 299/299 298/298
f 269/269 270/270 299/299
f 270/270 300/300 299/299
f 271/271 272/272 301/301
f 272/272 302/302 301/301
f 272/272 273/273 302/302
f 273/273 303/303 302/302
f 273/273 274/274 303/303
f 274/274 304/304 303/303
f 274/274 275/275 304/304
f 275/275 305/305 304/304
f 275/275 276/276 305/305
f 276/276 306/306 305/305
f 276/276 277/277 306/306
f 277/277 307/307 306/306
f 277/277 278/278 307/307
f 278/278 308/308 307/307
f 278/278 279/279 308/308
f 279/279 309/309 308/308
f 279/279 280/280 309/309
f 280/280 310/310 309/309
f 280/280 281/281 310/310
f 281/281 311/311 310/310
f 281/281 282/282 311/311
f 282/282 312/312 311/311
f 282/282 283/283 312/312
f 283/283 313/313 312/312
f 283/283 284/284 313/313
f 284/284 314/314 313/313
f 284/284 285/285 314/314
f 285/285 315/315 314/314
f 285/285 286/286 315/315
f 286/286 316/316 315/315
f 286/286 287/287 316/316
f 287/287 317/317 316/316
f 287/287 288/288 317/317
f 288/288 318/318 317/317
f 288/288 289/289 318/318
f 289/289 319/319 318/318
f 289/289 290/290 319/319
f 290/290 320/320 319/319
f 290/290 291/291 320/320
f 291/291 321/321 320/320
f 291/291 292/292 321/321
f 292/292 322/322 321/321
f 292/292 293/293 322/322
f 293/293 323/323 322/322
f 293/293 294/294 323/323
f 294/294 324/324 323/323
f 294/294 295/295 324/324
f 295/295 325/325 324/324
f 295/295 296/296 325/325
f 296/296 326/326 325/325
f 296/296 297/297 326/326
f 297/297 327/327 326/326
f 297/297 298/298 327/327
f 298/298 328/328 327/327
f 298/298 299/299 328/328
f 299/299 329/329 328/328
f 299/299 300/300 329/329
f 300/300 330/330 329/329
f 301/301 302/302 331/331
f 302/302 332/332 331/331
f 302/302 303/303 332/332
f 303/303 333/333 332/332
f 303/303 304/304 333/333
f 304/304 334/334 333/333
f 304/304 305/305 334/334
f 305/305 335/335 334/334
f 305/305 306/306 335/335
f 306/306 336/336 335/335
f 306/306 307/307 336/336
f 307/307 337/337 336/336
f 307/307 308/308 337/337
f 308/308 338/338 337/337
f 308/308 309/309 338/338
f 309/309 339/339 338/338
f 309/309 310/310 339/339
f 310/310 340/340 339/339
f 310/310 311/311 340/340
f 311/311 341/341 340/340
f 311/311 312/312 341/341
f 312/312 342/342 341/341
f 312/312 313/313 342/342
f 313/313 343/343 342/342
f 313/313 314/314 343/343
f 314/314 344/344 343/343
f 314/314 315/315 344/344
f 315/315 345/345 344/344
f 315/315 316/316 345/345
f 316/316 346/346 345/345
f 316/316 317/317 346/346
f 317/317 347/347 346/346
f 317/317 318/318 347/347
f 318/318 348/348 347/347
f 318/318 319/319 348/348
f 319/319 349/349 348/348
f 319/319 320/320 349/349
f 320/320 350/350 349/349
f 320/320 321/321 350/350
f 321/321 351/351 350/350
f 321/321 322/322 351/351
f 322/322 352/352 351/351
f 322/322 323/323 352/352
f 323/323 353/353 352/352
f 323/323 324/324 353/353
f 324/324 354/354 353/353
f 324/324 325/325 354/354
f 325/325 355/355 354/354
f 325/325 326/326 355/355
f 326/326 356/356 355/355
f 326/326 327/327 356/356
f 327/327 357/357 356/356
f 327/327 328/328 357/357
f 328/328 358/358 357/357
f 328/328 329/329 358/358
f 329/329 359/359 358/358
f 329/329 330/330 359/359
f 330/330 360/360 359/359
f 331/331 332/332 361/361
f 332/332 362/362 361/361
f 332/332 333/333 362/362
f 333/333 363/363 362/362
f 333/333 334/334 363/363
f 334/334 364/364 363/363
f 334/334 335/335 364/364
f 335/335 365/365 364/364
f 335/335 336/336 365/365
f 336/336 366/366 365/365
f 336/336 337/337 366/366
f 337/337 367/367 366/366
f 337/337 338/338 367/367
f 338/338 368/368 367/367
f 338/338 339/339 368/368
f 339/339 369/369 368/368
f 339/339 340/340 369/369
f 340/340 370/370 369/369
f 340/340 341/341 370/370
f 341/341 371/371 370/370
f 341/341 342/342 371/371
f 342/342 372/372 371/371
f 342/342 343/343 372/372
f 343/343 373/373 372/372
f 343/343 344/344 373/373
f 344/344 374/374 373/373
f 344/344 345/345 374/374
f 345/345 375/375 374/374
f 345/345 346/346 375/375
f 346/346 376/376 375/375
f 346/346 347/347 376/376
f 347/347 377/377 376/376
f 347/347 348/348 377/377
f 348/348 378/378 377/377
f 348/348 349/349 378/378
f 349/349 379/379 378/378
f 349/349 350/350 379/379
f 350/350 380/380 379/379
f 350/350 351/351 380/380
f 351/351 381/381 380/380
f 351/351 352/352 381/381
f 352/352 382/382 381/381
f 352/352 353/353 382/382
f 353/353 383/383 382/382
f 353/353 354/354 383/383
f 354/354 384/384 383/383
f 354/354 355/355 384/384
f 355/355 385/385 384/384
f 355/355 356/356 385/385
f 356/356 386/386 385/385
f 356/356 357/357 386/386
f 357/357 387/387 386/386
f 357/357 358/358 387/387
f 358/358 388/388 387/387
f 358/358 359/359 388/388
f 359/359 389/389 388/388
f 359/359 360/360 389/389
f 360/360 390/390 389/389
f 361/361 362/362 391/391
f 362/362 392/392 391/391
f 362/362 363/363 392/392
f 363/363 393/393 392/392
f 363/363 364/364 393/393
f 364/364 394/394 393/393
f 364/364 365/365 394/394
f 365/365 395/395 394/394
f 365/365 366/366 395/395
f 366/366 396/396 395/395
f 366/366 367/367 396/396
f 367/367 397/397 396/396
f 367/367 368/368 397/397
f 368/368 398/398 397/397
f 368/368 369/369 398/398
f 369/369 399/399 398/398
f 369/369 370/370 399/399
f 370/370 400/400 399/399
f 370/370 371/371 400/400
f 371/371 401/401 400/400
f 371/371 372/372 401/401
f 372/372 402/402 401/401
f 372/372 373/373 402/402
f 373/373 403/403 402/402
f 373/373 374/374 403/403
f 374/374 404/404 403/403
f 374/374 375/375 404/404
f 375/375 405/405 404/404
f 375/375 376/376 405/405
f 376/376 406/406 405/405
f 376/376 377/377 406/406
f 377/377 407/407 406/406
f 377/377 378/378 407/407
f 378/378 408/408 407/407
f 378/378 379/379 408/408
f 379/379 409/409 408/408
f 379/379 380/380 409/409
f 380/380 410/410 409/409
f 380/380 381/381 410/410
f 381/381 411/411 410/410
f 381/381 382/382 411/411
f 382/382 412/412 411/411
f 382/382 383/383 412/412
f 383/383 413/413 412/412
f 383/383 384/384 413/413
f 384/384 414/414 413/413
f 384/384 385/385 414/414
f 385/385 415/415 414/414
f 385/385 386/386 415/415
f 386/386 416/416 415/415
f 386/386 387/387 416/416
f 387/387 417/417 416/416
f 387/387 388/388 417/417
f 388/388 418/418 417/417
f 388/388 389/389 418/418
f 389/389 419/419 418/418
f 389/389 390/390 419/419
f 390/390 420/420 419/419
f 391/391 392/392 421/421
f 392/392 422/422 421/421
f 392/392 393/393 422/422
f 393/393 423/423 422/422
f 393/393 394/394 423/423
f 394/394 424/424 423/423
f 394/394 395/395 424/424
f 395/395 425/425 424/424
f 395/395 396/396 425/425
f 396/396 426/426 425/425
f 396/396 397/397 426/426
f 397/397 427/427 426/426
f 397/397 398/398 427/427
f 398/398 428/428 427/427
f 398/398 399/399 428/428
f 399/399 429/429 428/428
f 399/399 400/400 429/429
f 400/400 430/430 429/429
f 400/400 401/401 430/430
f 401/401 431/431 430/430
f 401/401 402/402 431/431
f 402/402 432/432 431/431
f 402/402 403/403 432/432
f 403/403 433/433 432/432
f 403/403 404/404 433/433
f 404/404 434/434 433/433
f 404/404 405/405 434/434
f 405/405 435/435 434/434
f 405/405 406/406 435/435
f 406/406 436/436 435/435
f 406/406 407/407 436/436
f 407/407 437/437 436/436
f 407/407 408/408 437/437
f 408/408 438/438 437/437
f 408/408 409/409 438/438
f 409/409 439/439 438/438
f 409/409 410/410 439/439
f 410/410 440/440 439/439
f 410/410 411/411 440/440
f 411/411 441/441 440/440
f 411/411 412/412 441/441
f 412/412 442/442 441/441
f 412/412 413/413 442/442
f 413/413 443/443 442/442
f 413/413 414/414 443/443
f 414/414 444/444 443/443
f 414/414 415/415 444/444
f 415/415 445/445 444/444
f 415/415 416/416 445/445
f 416/416 446/446 445/445
f 416/416 417/417 446/446
f 417/417 447/447 446/446
f 417/417 418/418 447/447
f 418/418 448/448 447/447
f 418/418 419/419 448/448
f 419/419 449/449 448/448
f 419/419 420/420 449/449
f 420/420 450/450 449/449
f 421/421 422/422 451/451
f 422/422 452/452 451/451
f 422/422 423/423 452/452
f 423/423 453/453 452/452
f 423/423 424/424 453/453
f 424/424 454/454 453/453
f 424/424 425/425 454/454
f 425/425 455/455 454/454
f 425/425 426/426 455/455
f 426/426 456/456 455/455
f 426/426 427/427 456/456
f 427/427 457/457 456/456
f 427/427 428/428 457/457
f 428/428 458/458 457/457
f 428/428 429/429 458/458
f 429/429 459/459 458/458
f 429/429 430/430 459/459
f 430/430 460/460 459/459
f 430/430 431/431 460/460
f 431/431 461/461 460/460
f 431/431 432/432 461/461
f 432/432 462/462 461/461
f 432/432 433/433 462/462
f 433/433 463/463 462/462
f 433/433 434/434 463/463
f 434/434 464/464 463/463
f 434/434 435/435 464/464
f 435/435 465/465 464/464
f 435/435 436/436 465/465
f 436/436 466/466 465/465
f 436/436 437/437 466/466
f 437/437 467/467 466/466
f 437/437 438/438 467/467
f 438/438 468/468 467/467
f 438/438 439/439 468/468
f 439/439 469/469 468/468
f 439/439 440/440 469/469
f 440/440 470/470 469/469
f 440/440 441/441 470/470
f 441/441 471/471 470/470
f 441/441 442/442 471/471
f 442/442 472/472 471/471
f 442/442 443/443 472/472
f 443/443 473/473 472/472
f 443/443 444/444 473/473
f 444/444 474/474 473/473
f 444/444 445/445 474/474
f 445/445 475/475 474/474
f 445/445 446/446 475/475
f 446/446 476/476 475/475
f 446/446 447/447 476/476
f 447/447 477/477 476/476
f 447/447 448/448 477/477
f 448/448 478/478 477/477
f 448/448 449/449 478/478
f 449/449 479/479 478/478
f 449/449 450/450 479/479
f 450/450 480/480 479/479
f 451/451 452/452 481/481
f 452/452 482/482 481/481
f 452/452 453/453 482/482
f 453/453 483/483 482/482
f 453/453 454/454 483/483
f 454/454 484/484 483/483
f 454/454 455/455 484/484
f 455/455 485/485 484/484
f 455/455 456/456 485/485
f 456/456 486/486 485/485
f 456/456 457/457 486/486
f 457/457 487/487 486/486
f 457/457 458/458 487/487
f 458/458 488/488 487/487
f 458/458 459/459 488/488
f 459/459 489/489 488/488
f 459/459 460/460 489/489
f 460/460 490/490 489/489
f 460/460 461/461 490/490
f 461/461 491/491 490/490
f 461/461 462/462 491/491
f 462/462 492/492 491/491
f 462/462 463/463 492/492
f 463/463 493/493 492/492
f 463/463 464/464 493/493
f 464/464 494/494 493/493
f 464/464 465/465 494/494
f 465/465 495/495 494/494
f 465/465 466/466 495/495
f 466/466 496/496 495/495
f 466/466 467/467 496/496
f 467/467 497/497 496/496
f 467/467 468/468 497/497
f 468/468 498/498 497/497
f 468/468 469/469 498/498
f 469/469 499/499 498/498
f 469/469 470/470 499/499
f 470/470 500/500 499/499
f 470/470 471/471 500/500
f 471/471 501/501 500/500
f 471/471 472/472 501/501
f 472/472 502/502 501/501
f 472/472 473/473 502/502
f 473/473 503/503 502/502
f 473/473 474/474 503/503
f 474/474 504/504 503/503
f 474/474 475/475 504/504
f 475/475 505/505 504/504
f 475/475 476/476 505/505
f 476/476 506/506 505/505
f 476/476 477/477 506/506
f 477/477 507/507 506/506
f 477/477 478/478 507/507
f 478/478 508/508 507/507
f 478/478 479/479 508/508
f 479/479 509/509 508/508
f 479/479 480/480 509/509
f 480/480 510/510 509/509
f 481/481 482/482 511/511
f 482/482 512/512 511/511
f 482/482 483/483 512/512
f 483/483 513/513 512/512
f 483/483 484/484 513/513
f 484/484 514/514 513/513
f 484/484 485/485 514/514
f 485/485 515/515 514/514
f 485/485 486/486 515/515
f 486/486 516/516 515/515
f 486/486 487/487 516/516
f 487/487 517/517 516/516
f 487/487 488/488 517/517
f 488/488 518/518 517/517
f 488/488 489/489 518/518
f 489/489 519/519 518/518
f 489/489 490/490 519/519
f 490/490 520/520 519/519
f 490/490 491/491 520/520
f 491/491 521/521 520/520
f 491/491 492/492 521/521
f 492/492 522/522 521/521
f 492/492 493/493 522/522
f 493/493 523/523 522/522
f 493/493 494/494 523/523
f 494/494 524/524 523/523
f 494/494 495/495 524/524
f 495/495 525/525 524/524
f 495/495 496/496 525/525
f 496/496 526/526 525/525
f 496/496 497/497 526/526
f 497/497 527/527 526/526
f 497/497 498/498 527/527
f 498/498 528/528 527/527
f 498/498 499/499 528/528
f 499/499 529/529 528/528
f 499/499 500/500 529/529
f 500/500 530/530 529/529
f 500/500 501/501 530/530
f 501/501 531/531 530/530
f 501/501 502/502 531/531
f 502/502 532/532 531/531
f 502/502 503/503 532/532
f 503/503 533/533 532/532
f 503/503 504/504 533/533
f 504/504 534/534 533/533
f 504/504 505/505 534/534
f 505/505 535/535 534/534
f 505/505 506/506 535/535
f 506/506 536/536 535/535
f 506/506 507/507 536/536
f 507/507 537/537 536/536
f 507/507 508/508 537/537
f 508/508 538/538 537/537
f 508/508 509/509 538/538
f 509/509 539/539 538/538
f 509/509 510/510 539/539
f 510/510 540/540 539/539
f 511/511 512/512 541/541
f 512/512 542/542 541/541
f 512/512 513/513 542/542
f 513/513 543/543 542/542
f 513/513 514/514 543/543
f 514/514 544/544 543/543
f 514/514 515/515 544/544
f 515/515 545/545 544/544
f 515/515 516/516 545/545
f 516/516 546/546 545/545
f 516/516 517/517 546/546
f 517/517 547/547 546/546
f 517/517 518/518 547/547
f 518/518 548/548 547/547
f 518/518 519/519 548/548
f 519/519 549/549 548/548
f 519/519 520/520 549/549
f 520/520 550/550 549/549
f 520/520 521/521 550/550
f 521/521 551/551 550/550
f 521/521 522/522 551/551
f 522/522 552/552 551/551
f 522/522 523/523 552/552
f 523/523 553/553 552/552
f 523/523 524/524 553/553
f 524/524 554/554 553/553
f 524/524 525/525 554/554
f 525/525 555/555 554/554
f 525/525 526/526 555/555
f 526/526 556/556 555/555
f 526/526 527/527 556/556
f 527/527 557/557 556/556
f 527/527 528/528 557/557
f 528/528 558/558 557/557
f 528/528 529/529 558/558
f 529/529 559/559 558/558
f 529/529 530/530 559/559
f 530/530 560/560 559/559
f 530/530 531/531 560/560
f 531/531 561/561 560/560
f 531/531 532/532 561/561
f 532/532 562/562 561/561
f 532/532 533/533 562/562
f 533/533 563/563 562/562
f 533/533 534/534 563/563
f 534/534 564/564 563/563
f 534/534 535/535 564/564
f 535/535 565/565 564/564
f 535/535 536/536 565/565
f 536/536 566/566 565/565
f 536/536 537/537 566/566
f 537/537 567/567 566/566
f 537/537 538/538 567/567
f 538/538 568/568 567/567
f 538/538 539/539 568/568
f 539/539 569/569 568/568
f 539/539 540/540 569/569
f 540/540 570/570 569/569
f 541/541 542/542 571/571
f 542/542 572/572 571/571
f 542/542 543/543 572/572
f 543/543 573/573 572/572
f 543/543 544/544 573/573
f 544/544 574/574 573/573
f 544/544 545/545 574/574
f 545/545 575/575 574/574
f 545/545 546/546 575/575
f 546/546 576/576 575/575
f 546/546 547/547 576/576
f 547/547 577/577 576/576
f 547/547 548/548 577/577
f 548/548 578/578 577/577
f 548/548 549/549 578/578
f 549/549 579/579 578/578
f 549/549 550/550 579/579
f 550/550 580/580 579/579
f 550/550 551/551 580/580
f 551/551 581/581 580/580
f 551/551 552/552 581/581
f 552/552 582/582 581/581
f 552/552 553/553 582/582
f 553/553 583/583 582/582
f 553/553 554/554 583/583
f 554/554 584/584 583/583
f 554/554 555/555 584/584
f 555/555 585/585 584/584
f 555/555 556/556 585/585
f 556/556 586/586 585/585
f 556/556 557/557 586/586
f 557/557 587/587 586/586
f 557/557 558/558 587/587
f 558/558 588/588 587/587
f 558/558 559/559 588/588
f 559/559 589/589 588/588
f 559/559 560/560 589/589
f 560/560 590/590 589/589
f 560/560 561/561 590/590
f 561/561 591/591 590/590
f 561/561 562/562 591/591
f 562/562 592/592 591/591
f 562/562 563/563 592/592
f 563/563 593/593 592/592
f 563/563 564/564 593/593
f 564/564 594/594 593/593
f 564/564 565/565 594/594
f 565/565 595/595 594/594
f 565/565 566/566 595/595
f 566/566 596/596 595/595
f 566/566 567/567 596/596
f 567/567 597/597 596/596
f 567/567 568/568 597/597
f 568/568 598/598 597/597
f 568/568 569/569 598/598
f 569/569 599/599 598/598
f 569/569 570/570 599/599
f 570/570 600/600 599/599
f 571/571 572/572 601/601
f 572/572 602/602 601/601
f 572/572 573/573 602/602
f 573/573 603/603 602/602
f 573/573 574/574 603/603
f 574/574 604/604 603/603
f 574/574 575/575 604/604
f 575/575 605/605 604/604
f 575/575 576/576 605/605
f 576/576 606/606 605/605
f 576/576 577/577 606/606
f 577/577 607/607 606/606
f 577/577 578/578 607/607
f 578/578 608/608 607/607
f 578/578 579/579 608/608
f 579/579 609/609 608/608
f 579/579 580/580 609/609
f 580/580 610/610 609/609
f 580/580 581/581 610/610
f 581/581 611/611 610/610
f 581/581 582/582 611/611
f 582/582 612/612 611/611
f 582/582 583/583 612/612
f 583/583 613/613 612/612
f 583/583 584/584 613/613
f 584/584 614/614 613/613
f 584/584 585/585 614/614
f 585/585 615/615 614/614
f 585/585 586/586 615/615
f 586/586 616/616 615/615
f 586/586 587/587 616/616
f 587/587 617/617 616/616
f 587/587 588/588 617/617
f 588/588 618/618 617/617
f 588/588 589/589 618/618
f 589/589 619/619 618/618
f 589/589 590/590 619/619
f 590/590 620/620 619/619
f 590/590 591/591 620/620
f 591/591 621/621 620/620
f 591/591 592/592 621/621
f 592/592 622/622 621/621
f 592/592 593/593 622/622
f 593/593 623/623 622/622
f 593/593 594/594 623/623
f 594/594 624/624 623/623
f 594/594 595/595 624/624
f 595/595 625/625 624/624
f 595/595 596/596 625/625
f 596/596 626/626 625/625
f 596/596 597/597 626/626
f 597/597 627/627 626/626
f 597/597 598/598 627/627
f 598/598 628/628 627/627
f 598/598 599/599 628/628
f 599/599 629/629 628/628
f 599/599 600/600 629/629
f 600/600 630/630 629/629
f 601/601 602/602 631/631
f 602/602 632/632 631/631
f 602/602 603/603 632/632
f 603/603 633/633 632/632
f 603/603 604/604 633/633
f 604/604 634/634 633/633
f 604/604 605/605 634/634
f 605/605 635/635 634/634
f 605/605 606/606 635/635
f 606/606 636/636 635/635
f 606/606 607/607 636/636
f 607/607 637/637 636/636
f 607/607 608/608 637/637
f 608/608 638/638 637/637
f 608/608 609/609 638/638
f 609/609 639/639 638/638
f 609/609 610/610 639/639
f 610/610 640/640 639/639
f 610/610 611/611 640/640
f 611/611 641/641 640/640
f 611/611 612/612 641/641
f 612/612 642/642 641/641
f 612/612 613/613 642/642
f 613/613 643/643 642/642
f 613/613 614/614 643/643
f 614/614 644/644 643/643
f 614/614 615/615 644/644
f 615/615 645/645 644/644
f 615/615 616/616 645/645
f 616/616 646/646 645/645
f 616/616 617/617 646/646
f 617/617 647/647 646/646
f 617/617 618/618 647/647
f 618/618 648/648 647/647
f 618/618 619/619 648/648
f 619/619 649/649 648/648
f 619/619 620/620 649/649
f 620/620 650/650 649/649
f 620/620 621/621 650/650
f 621/621 651/651 650/650
f 621/621 622/622 651/651
f 622/622 652/652 651/651
f 622/622 623/623 652/652
f 623/623 653/653 652/652
f 623/623 624/624 653/653
f 624/624 654/654 653/653
f 624/624 625/625 654/654
f 625/625 655/655 654/654
f 625/625 626/626 655/655
f 626/626 656/656 655/655
f 626/626 627/627 656/656
f 627/627 657/657 656/656
f 627/627 628/628 657/657
f 628/628 658/658 657/657
f 628/628 629/629 658/658
f 629/629 659/659 658/658
f 629/629 630/630 659/659
f 630/630 660/660 659/659
f 631/631 632/632 661/661
f 632/632 662/662 661/661
f 632/632 633/633 662/662
f 633/633 663/663 662/662
f 633/633 634/634 663/663
f 634/634 664/664 663/663
f 634/634 635/635 664/664
f 635/635 665/665 664/664
f 635/635 636/636 665/665
f 636/636 666/666 665/665
f 636/636 637/637 666/666
f 637/637 667/667 666/666
f 637/637 638/638 667/667
f 638/638 668/668 667/667
f 638/638 639/639 668/668
f 639/639 669/669 668/668
f 639/639 640/640 669/669
f 640/640 670/670 669/669
f 640/640 641/641 670/670
f 641/641 671/671 670/670
f 641/641 642/642 671/671
f 642/642 672/672 671/671
f 642/642 643/643 672/672
f 643/643 673/673 672/672
f 643/643 644/644 673/673
f 644/644 674/674 673/673
f 644/644 645/645 674/674
f 645/645 675/675 674/674
f 645/645 646/646 675/675
f 646/646 676/676 675/675
f 646/646 647/647 676/676
f 647/647 677/677 676/676
f 647/647 648/648 677/677
f 648/648 678/678 677/677
f 648/648 649/649 678/678
f 649/649 679/679 678/678
f 649/649 650/650 679/679
f 650/650 680/680 679/679
f 650/650 651/651 680/680
f 651/651 681/681 680/680
f 651/651 652/652 681/681
f 652/652 682/682 681/681
f 652/652 653/653 682/682
f 653/653 683/683 682/682
f 653/653 654/654 683/683
f 654/654 684/684 683/683
f 654/654 655/655 684/684
f 655/655 685/685 684/684
f 655/655 656/656 685/685
f 656/656 686/686 685/685
f 656/656 657/657 686/686
f 657/657 687/687 686/686
f 657/657 658/658 687/687
f 658/658 688/688 687/687
f 658/658 659/659 688/688
f 659/659 689/689 688/688
f 659/659 660/660 689/689
f 660/660 690/690 689/689
f 661/661 662/662 691/691
f 662/662 692/692 691/691
f 662/662 663/663 692/692
f 663/663 693/693 692/692
f 663/663 664/664 693/693
f 664/664 694/694 693/693
f 664/664 665/665 694/694
f 665/665 695/695 694/694
f 665/665 666/666 695/695
f 666/666 696/696 695/695
f 666/666 667/667 696/696
f 667/667 697/697 696/696
f 667/667 668/668 697/697
f 668/668 698/698 697/697
f 668/668 669/669 698/698
f 669/669 699/699 698/698
f 669/669 670/670 699/699
f 670/670 700/700 699/699
f 670/670 671/671 700/700
f 671/671 701/701 700/700
f 671/671 672/672 701/701
f 672/672 702/702 701/701
f 672/672 673/673 702/702
f 673/673 703/703 702/702
f 673/673 674/674 703/703
f 674/674 704/704 703/703
f 674/674 675/675 704/704
f 675/675 705/705 704/704
f 675/675 676/676 705/705
f 676/676 706/706 705/705
f 676/676 677/677 706/706
f 677/677 707/707 706/706
f 677/677 678/678 707/707
f 678/678 708/708 707/707
f 678/678 679/679 708/708
f 679/679 709/709 708/708
f 679/679 680/680 709/709
f 680/680 710/710 709/709
f 680/680 681/681 710/710
f 681/681 711/711 710/710
f 681/681 682/682 711/711
f 682/682 712/712 711/711
f 682/682 683/683 712/712
f 683/683 713/713 712/712
f 683/683 684/684 713/713
f 684/684 714/714 713/713
f 684/684 685/685 714/714
f 685/685 715/715 714/714
f 685/685 686/686 715/715
f 686/686 716/716 715/715
f 686/686 687/687 716/716
f 687/687 717/717 716/716
f 687/687 688/688 717/717
f 688/688 718/718 717/717
f 688/688 689/689 718/718
f 689/689 719/719 718/718
f 689/689 690/690 719/719
f 690/690 720/720 719/719
f 691/691 692/692 721/721
f 692/692 722/722 721/721
f 692/692 693/693 722/722
f 693/693 723/723 722/722
f 693/693 694/694 723/723
f 694/694 724/724 723/723
f 694/694 695/695 724/724
f 695/695 725/725 724/724
f 695/695 696/696 725/725
f 696/696 726/726 725/725
f 696/696 697/697 726/726
f 697/697 727/727 726/726
f 697/697 698/698 727/727
f 698/698 728/728 727/727
f 698/698 699/699 728/728
f 699/699 729/729 728/728
f 699/699 700/700 729/729
f 700/700 730/730 729/729
f 700/700 701/701 730/730
f 701/701 731/731 730/730
f 701/701 702/702 731/731
f 702/702 732/732 731/731
f 702/702 703/703 732/732
f 703/703 733/733 732/732
f 703/703 704/704 733/733
f 704/704 734/734 733/733
f 704/704 705/705 734/734
f 705/705 735/735 734/734
f 705/705 706/706 735/735
f 706/706 736/736 735/735
f 706/706 707/707 736/736
f 707/707 737/737 736/736
f 707/707 708/708 737/737
f 708/708 738/738 737/737
f 708/708 709/709 738/738
f 709/709 739/739 738/738
f 709/709 710/710 739/739
f 710/710 740/740 739/739
f 710/710 711/711 740/740
f 711/711 741/741 740/740
f 711/711 712/712 741/741
f 712/712 742/742 741/741
f 712/712 713/713 742/742
f 713/713 743/743 742/742
f 713/713 714/714 743/743
f 714/714 744/744 743/743
f 714/714 715/715 744/744
f 715/715 745/745 744/744
f 715/715 716/716 745/745
f 716/716 746/746 745/745
f 716/716 717/717 746/746
f 717/717 747/747 746/746
f 717/717 718/718 747/747
f 718/718 748/748 747/747
f 718/718 719/719 748/748
f 719/719 749/749 748/748
f 719/719 720/720 749/749
f 720/720 750/750 749/749
f 721/721 722/722 751/751
f 722/722 752/752 751/751
f 722/722 723/723 752/752
f 723/723 753/753 752/752
f 723/723 724/724 753/753
f 724/724 754/754 753/753
f 724/724 725/725 754/754
f 725/725 755/755 754/754
f 725/725 726/726 755/755
f 726/726 756/756 755/755
f 726/726 727/727 756/756
f 727/727 757/757 756/756
f 727/727 728/728 757/757
f 728/728 758/758 757/757
f 728/728 729/729 758/758
f 729/729 759/759 758/758
f 729/729 730/730 759/759
f 730/730 760/760 759/759
f 730/730 731/731 760/760
f 731/731 761/761 760/760
f 731/731 732/732 761/761
f 732/732 762/762 761/761
f 732/732 733/733 762/762
f 733/733 763/763 762/762
f 733/733 734/734 763/763
f 734/734 764/764 763/763
f 734/734 735/735 764/764
f 735/735 765/765 764/764
f 735/735 736/736 765/765
f 736/736 766/766 765/765
f 736/736 737/737 766/766
f 737/737 767/767 766/766
f 737/737 738/738 767/767
f 738/738 768/768 767/767
f 738/738 739/739 768/768
f 739/739 769/769 768/768
f 739/739 740/740 769/769
f 740/740 770/770 769/769
f 740/740 741/741 770/770
f 741/741 771/771 770/770
f 741/741 742/742 771/771
f 742/742 772/772 771/771
f 742/742 743/743 772/772
f 743/743 773/773 772/772
f 743/743 744/744 773/773
f 744/744 774/774 773/773
f 744/744 745/745 774/774
f 745/745 775/775 774/774
f 745/745 746/746 775/775
f 746/746 776/776 775/775
f 746/746 747/747 776/776
f 747/747 777/777 776/776
f 747/747 748/748 777/777
f 748/748 778/778 777/777
f 748/748 749/749 778/778
f 749/749 779/779 778/778
f 749/749 750/750 779/779
f 750/750 780/780 779/779
f 751/751 752/752 781/781
f 752/752 782/782 781/781
f 752/752 753/753 782/782
f 753/753 783/783 782/782
f 753/753 754/754 783/783
f 754/754 784/784 783/783
f 754/754 755/755 784/784
f 755/755 785/785 784/784
f 755/755 756/756 785/785
f 756/756 786/786 785/785
f 756/756 757/757 786/786
f 757/757 787/787 786/786
f 757/757 758/758 787/787
f 758/758 788/788 787/787
f 758/758 759/759 788/788
f 759/759 789/789 788/788
f 759/759 760/760 789/789
f 760/760 790/790 789/789
f 760/760 761/761 790/790
f 761/761 791/791 790/790
f 761/761 762/762 791/791
f 762/762 792/792 791/791
f 762/762 763/763 792/792
f 763/763 793/793 792/792
f 763/763 764/764 793/793
f 764/764 794/794 793/793
f 764/764 765/765 794/794
f 765/765 795/795 794/794
f 765/765 766/766 795/795
f 766/766 796/796 795/795
f 766/766 767/767 796/796
f 767/767 797/797 796/796
f 767/767 768/768 797/797
f 768/768 798/798 797/797
f 768/768 769/769 798/798
f 769/769 799/799 798/798
f 769/769 770/770 799/799
f 770/770 800/800 799/799
f 770/770 771/771 800/800
f 771/771 801/801 800/800
f 771/771 772/772 801/801
f 772/772 802/802 801/801
f 772/772 773/773 802/802
f 773/773 803/803 802/802
f 773/773 774/774 803/803
f 774/774 804/804 803/803
f 774/774 775/775 804/804
f 775/775 805/805 804/804
f 775/775 776/776 805/805
f 776/776 806/806 805/805
f 776/776 777/777 806/806
f 777/777 807/807 806/806
f 777/777 778/778 807/807
f 778/778 808/808 807/807
f 778/778 779/779 808/808
f 779/779 809/809 808/808
f 779/779 780/780 809/809
f 780/780 810/810 809/809
f 781/781 782/782 811/811
f 782/782 812/812 811/811
f 782/782 783/783 812/812
f 783/783 813/813 812/812
f 783/783 784/784 813/813
f 784/784 814/814 813/813
f 784/784 785/785 814/814
f 785/785 815/815 814/814
f 785/785 786/786 815/815
f 786/786 816/816 815/815
f 786/786 787/787 816/816
f 787/787 817/817 816/816
f 787/787 788/788 817/817
f 788/788 818/818 817/817
f 788/788 789/789 818/818
f 789/789 819/819 818/818
f 789/789 790/790 819/819
f 790/790 820/820 819/819
f 790/790 791/791 820/820
f 791/791 821/821 820/820
f 791/791 792/792 821/821
f 792/792 822/822 821/821
f 792/792 793/793 822/822
f 793/793 823/823 822/822
f 793/793 794/794 823/823
f 794/794 824/824 823/823
f 794/794 795/795 824/824
f 795/795 825/825 824/824
f 795/795 796/796 825/825
f 796/796 826/826 825/825
f 796/796 797/797 826/826
f 797/797 827/827 826/826
f 797/797 798/798 827/827
f 798/798 828/828 827/827
f 798/798 799/799 828/828
f 799/799 829/829 828/828
f 799/799 800/800 829/829
f 800/800 830/830 829/829
f 800/800 801/801 830/830
f 801/801 831/831 830/830
f 801/801 802/802 831/831
f 802/802 832/832 831/831
f 802/802 803/803 832/832
f 803/803 833/833 832/832
f 803/803 804/804 833/833
f 804/804 834/834 833/833
f 804/804 805/805 834/834
f 805/805 835/835 834/834
f 805/805 806/806 835/835
f 806/806 836/836 835/835
f 806/806 807/807 836/836
f 807/807 837/837 836/836
f 807/807 808/808 837/837
f 808/808 838/838 837/837
f 808/808 809/809 838/838
f 809/809 839/839 838/838
f 809/809 810/810 839/839
f 810/810 840/840 839/839
f 811/811 812/812 841/841
f 812/812 842/842 841/841
f 812/812 813/813 842/842
f 813/813 843/843 842/842
f 813/813 814/814 843/843
f 814/814 844/844 843/843
f 814/814 815/815 844/844
f 815/815 845/845 844/844
f 815/815 816/816 845/845
f 816/816 846/846 845/845
f 816/816 817/817 846/846
f 817/817 847/847 846/846
f 817/817 818/818 847/847
f 818/818 848/848 847/847
f 818/818 819/819 848/848
f 819/819 849/849 848/848
f 819/819 820/820 849/849
f 820/820 850/850 849/849
f 820/820 821/821 850/850
f 821/821 851/851 850/850
f 821/821 822/822 851/851
f 822/822 852/852 851/851
f 822/822 823/823 852/852
f 823/823 853/853 852/852
f 823/823 824/824 853/853
f 824/824 854/854 853/853
f 824/824 825/825 854/854
f 825/825 855/855 854/854
f 825/825 826/826 855/855
f 826/826 856/856 855/855
f 826/826 827/827 856/856
f 827/827 857/857 856/856
f 827/827 828/828 857/857
f 828/828 858/858 857/857
f 828/828 829/829 858/858
f 829/829 859/859 858/858
f 829/829 830/830 859/859
f 830/830 860/860 859/859
f 830/830 831/831 860/860
f 831/831 861/861 860/860
f 831/831 832/832 861/861
f 832/832 862/862 861/861
f 832/832 833/833 862/862
f 833/833 863/863 862/862
f 833/833 834/834 863/863
f 834/834 864/864 863/863
f 834/834 835/835 864/864
f 835/835 865/865 864/864
f 835/835 836/836 865/865
f 836/836 866/866 865/865
f 836/836 837/837 866/866
f 837/837 867/867 866/866
f 837/837 838/838 867/867
f 838/838 868/868 867/867
f 838/838 839/839 868/868
f 839/839 869/869 868/868
f 839/839 840/840 869/869
f 840/840 870/870 869/869
f 841/841 842/842 871/871
f 842/842 872/872 871/871
f 842/842 843/843 872/872
f 843/843 873/873 872/872
f 843/843 844/844 873/873
f 844/844 874/874 873/873
f 844/844 845/845 874/874
f 845/845 875/875 874/874
f 845/845 846/846 875/875
f 846/846 876/876 875/875
f 846/846 847/847 876/876
f 847/847 877/877 876/876
f 847/847 848/848 877/877
f 848/848 878/878 877/877
f 848/848 849/849 878/878
f 849/849 879/879 878/878
f 849/849 850/850 879/879
f 850/850 880/880 879/879
f 850/850 851/851 880/880
f 851/851 881/881 880/880
f 851/851 852/852 881/881
f 852/852 882/882 881/881
f 852/852 853/853 882/882
f 853/853 883/883 882/882
f 853/853 854/854 883/883
f 854/854 884/884 883/883
f 854/854 855/855 884/884
f 855/855 885/885 884/884
f 855/855 856/856 885/885
f 856/856 886/886 885/885
f 856/856 857/857 886/886
f 857/857 887/887 886/886
f 857/857 858/858 887/887
f 858/858 888/888 887/887
f 858/858 859/859 888/888
f 859/859 889/889 888/888
f 859/859 860/860 889/889
f 860/860 890/890 889/889
f 860/860 861/861 890/890
f 861/861 891/891 890/890
f 861/861 862/862 891/891
f 862/862 892/892 891/891
f 862/862 863/863 892/892
f 863/863 893/893 892/892
f 863/863 864/864 893/893
f 864/864 894/894 893/893
f 864/864 865/865 894/894
f 865/865 895/895 894/894
f 865/865 866/866 895/895
f 866/866 896/896 895/895
f 866/866 867/867 896/896
f 867/867 897/897 896/896
f 867/867 868/868 897/897
f 868/868 898/898 897/897
f 868/868 869/869 898/898
f 869/869 899/899 898/898
f 869/869 870/870 899/899
f 870/870 900/900 899/899
